<svg width="24" height="24" viewBox="0 0 24 24" fill="none" xmlns="http://www.w3.org/2000/svg">
<path fill-rule="evenodd" clip-rule="evenodd" d="M20.4578 3.17765L15.8979 2.85194C15.5385 2.82512 15.2251 3.09467 15.1981 3.45403C15.1711 3.81354 15.4407 4.12683 15.8002 4.1538L15.8013 4.15388L18.6396 4.34662L13.1043 8.67684L8.65977 5.18998C8.40806 4.99084 8.04884 5.00474 7.81325 5.2227L3.14905 9.68627C2.89331 9.92917 2.87763 10.3312 3.1126 10.5933C3.23148 10.7443 3.41547 10.8294 3.60771 10.8222C3.77796 10.8192 3.94029 10.7497 4.0599 10.6285L8.3009 6.55911L12.685 10.0125C12.9227 10.2024 13.2594 10.2031 13.4971 10.0134L13.405 9.89505L13.4987 10.0121L19.6455 5.22898L19.4217 8.00298L19.4216 8.01437C19.42 8.36421 19.6854 8.65749 20.0336 8.69078L20.0408 8.69146H20.0726C20.4082 8.69293 20.69 8.43917 20.7236 8.10526L21.0494 3.86963C21.0721 3.69705 21.0119 3.52404 20.8874 3.40287C20.7845 3.26841 20.6274 3.18587 20.4578 3.17765ZM19.6619 5.02604L19.6455 5.22898L19.806 5.10414L19.8223 4.90127L19.8222 4.90126L19.6619 5.02604ZM8.29121 6.36053L8.39506 6.46876L8.3009 6.55911L8.19839 6.47836L8.29121 6.36053ZM3.22751 10.4968L3.11679 10.5979L3.1126 10.5933L3.10871 10.5883L3.22751 10.4968ZM13.1041 8.86729L13.0117 8.74925L13.1043 8.67684L13.1967 8.74938L13.1045 8.86698L13.1041 8.86729ZM18.8634 4.36182L18.6396 4.34662L18.8165 4.20822L19.0403 4.22341L18.8634 4.36182ZM4.0599 10.6285L4.05834 10.63L3.95449 10.5218L4.06164 10.6268L4.0599 10.6285ZM3.60771 10.8222L3.60568 10.8222L3.60355 10.6722L3.60974 10.8221L3.60771 10.8222ZM9.69531 14.0061C9.69531 13.6463 9.98693 13.3547 10.3467 13.3547H13.6556C14.0153 13.3547 14.3069 13.6463 14.3069 14.0061V20.4986C14.3069 20.8583 14.0153 21.1499 13.6556 21.1499H10.3467C9.98693 21.1499 9.69531 20.8583 9.69531 20.4986V14.0061ZM10.998 14.6574V19.8472H13.0042V14.6574H10.998ZM16.5781 10.8501C16.3888 10.8501 16.2117 10.9081 16.0787 11.009C15.9456 11.11 15.8501 11.2605 15.8501 11.4387V20.5615C15.8501 20.7397 15.9456 20.8901 16.0787 20.9911C16.2117 21.092 16.3888 21.1501 16.5781 21.1501H20.4221C20.6114 21.1501 20.7885 21.092 20.9215 20.9911C21.0546 20.8901 21.1501 20.7397 21.1501 20.5615V11.4387C21.1501 11.2605 21.0546 11.1101 20.9215 11.0091C20.7885 10.9082 20.6114 10.8501 20.4221 10.8501H16.5781ZM17.3062 19.9729V12.0273H19.694V19.9729H17.3062ZM3.12744 16.4377C3.12744 16.078 3.41905 15.7864 3.7788 15.7864H7.11281C7.47256 15.7864 7.76416 16.078 7.76416 16.4377V20.4987C7.76416 20.8584 7.47255 21.15 7.11281 21.15H3.7788C3.41905 21.15 3.12744 20.8584 3.12744 20.4987V16.4377ZM4.43015 17.0891V19.8473H6.46145V17.0891H4.43015Z" fill="white"/>
</svg>
