<svg width="170" height="182" viewBox="0 0 170 182" fill="none" xmlns="http://www.w3.org/2000/svg">
<path d="M138.42 75.84C138.43 83.2392 136.894 90.5589 133.91 97.33H36.0901C32.8945 90.0546 31.3623 82.1579 31.605 74.2154C31.8478 66.2728 33.8594 58.4844 37.4933 51.4177C41.1272 44.3511 46.2919 38.1841 52.6109 33.3662C58.93 28.5483 66.2444 25.2008 74.021 23.5676C81.7976 21.9345 89.8407 22.0568 97.564 23.9257C105.287 25.7946 112.497 29.363 118.666 34.3709C124.836 39.3787 129.811 45.6999 133.228 52.8739C136.645 60.0478 138.419 67.8937 138.42 75.84Z" fill="#F2F2F2"/>
<path d="M24.5801 97.33H145.42" stroke="#63666A" stroke-width="1.5" stroke-miterlimit="10" stroke-linecap="round"/>
<path d="M103 39.04H56.3101C55.2055 39.04 54.3101 39.9355 54.3101 41.04V105.62C54.3101 106.725 55.2055 107.62 56.3101 107.62H103C104.105 107.62 105 106.725 105 105.62V41.04C105 39.9355 104.105 39.04 103 39.04Z" fill="#D7D7D7" stroke="#63666A" stroke-width="1.5" stroke-miterlimit="10"/>
<path d="M113.69 93.81V113.38C113.687 113.666 113.573 113.939 113.371 114.141C113.169 114.343 112.896 114.457 112.61 114.46H64.08C63.7936 114.46 63.5189 114.346 63.3163 114.144C63.1138 113.941 63 113.666 63 113.38V47C63 46.7136 63.1138 46.4389 63.3163 46.2364C63.5189 46.0338 63.7936 45.92 64.08 45.92H112.61C112.896 45.92 113.171 46.0338 113.374 46.2364C113.576 46.4389 113.69 46.7136 113.69 47V86.27" fill="white"/>
<path d="M113.69 93.81V113.38C113.687 113.666 113.573 113.939 113.371 114.141C113.169 114.343 112.896 114.457 112.61 114.46H64.08C63.7936 114.46 63.5189 114.346 63.3163 114.144C63.1138 113.941 63 113.666 63 113.38V47C63 46.7136 63.1138 46.4389 63.3163 46.2364C63.5189 46.0338 63.7936 45.92 64.08 45.92H112.61C112.896 45.92 113.171 46.0338 113.374 46.2364C113.576 46.4389 113.69 46.7136 113.69 47V86.27" stroke="#63666A" stroke-width="1.5" stroke-linecap="round" stroke-linejoin="round"/>
<path d="M90.38 51.6499H68.97C68.4343 51.6499 68 52.0842 68 52.6199V64.0299C68 64.5656 68.4343 64.9999 68.97 64.9999H90.38C90.9157 64.9999 91.35 64.5656 91.35 64.0299V52.6199C91.35 52.0842 90.9157 51.6499 90.38 51.6499Z" fill="#F2F2F2"/>
<path d="M101.5 64L100.557 63.1497C97.2099 60.0763 95 58.0816 95 55.5967C95 53.5694 96.5599 52 98.575 52C99.133 52.003 99.6837 52.1274 100.189 52.3645C100.694 52.6017 101.141 52.9459 101.5 53.3733C101.859 52.9459 102.306 52.6017 102.811 52.3645C103.316 52.1273 103.867 52.003 104.425 52C106.44 52 108 53.5694 108 55.5967C108 58.0816 105.79 60.0763 102.443 63.1497L101.5 64Z" fill="#CCCCCC"/>
<path d="M106.79 83.02H68.7699C68.1735 83.02 67.6899 83.5036 67.6899 84.1V93.9C67.6899 94.4965 68.1735 94.98 68.7699 94.98H106.79C107.386 94.98 107.87 94.4965 107.87 93.9V84.1C107.87 83.5036 107.386 83.02 106.79 83.02Z" fill="#F2F2F2"/>
<path d="M106.79 96.72H68.7699C68.1735 96.72 67.6899 97.2035 67.6899 97.8V102.15C67.6899 102.746 68.1735 103.23 68.7699 103.23H106.79C107.386 103.23 107.87 102.746 107.87 102.15V97.8C107.87 97.2035 107.386 96.72 106.79 96.72Z" fill="#D7D7D7"/>
<path d="M106.8 69.17H68.8002C68.5138 69.17 68.2391 69.2838 68.0365 69.4864C67.834 69.6889 67.7202 69.9636 67.7202 70.25C67.7202 70.5365 67.834 70.8112 68.0365 71.0137C68.2391 71.2163 68.5138 71.33 68.8002 71.33H106.8C107.087 71.33 107.361 71.2163 107.564 71.0137C107.766 70.8112 107.88 70.5365 107.88 70.25C107.88 69.9636 107.766 69.6889 107.564 69.4864C107.361 69.2838 107.087 69.17 106.8 69.17Z" fill="#D7D7D7"/>
<path d="M106.8 72.65H68.8C68.6501 72.6355 68.4989 72.6526 68.356 72.7C68.2131 72.7475 68.0816 72.8243 67.9702 72.9255C67.8587 73.0267 67.7696 73.1501 67.7087 73.2878C67.6477 73.4255 67.6162 73.5744 67.6162 73.725C67.6162 73.8756 67.6477 74.0245 67.7087 74.1622C67.7696 74.2999 67.8587 74.4233 67.9702 74.5246C68.0816 74.6258 68.2131 74.7026 68.356 74.75C68.4989 74.7975 68.6501 74.8145 68.8 74.8H106.8C106.95 74.8145 107.101 74.7975 107.244 74.75C107.387 74.7026 107.518 74.6258 107.63 74.5246C107.741 74.4233 107.83 74.2999 107.891 74.1622C107.952 74.0245 107.984 73.8756 107.984 73.725C107.984 73.5744 107.952 73.4255 107.891 73.2878C107.83 73.1501 107.741 73.0267 107.63 72.9255C107.518 72.8243 107.387 72.7475 107.244 72.7C107.101 72.6526 106.95 72.6355 106.8 72.65Z" fill="#D7D7D7"/>
<path d="M106.8 76.12H68.8002C68.5138 76.12 68.2391 76.2338 68.0365 76.4363C67.834 76.6389 67.7202 76.9136 67.7202 77.2C67.7202 77.4864 67.834 77.7611 68.0365 77.9637C68.2391 78.1662 68.5138 78.28 68.8002 78.28H106.8C107.087 78.28 107.361 78.1662 107.564 77.9637C107.766 77.7611 107.88 77.4864 107.88 77.2C107.88 76.9136 107.766 76.6389 107.564 76.4363C107.361 76.2338 107.087 76.12 106.8 76.12Z" fill="#D7D7D7"/>
<path d="M106.8 105.33H68.8002C68.5138 105.33 68.2391 105.444 68.0365 105.646C67.834 105.849 67.7202 106.124 67.7202 106.41C67.7202 106.696 67.834 106.971 68.0365 107.174C68.2391 107.376 68.5138 107.49 68.8002 107.49H106.8C106.942 107.49 107.082 107.462 107.214 107.408C107.345 107.353 107.464 107.274 107.564 107.174C107.664 107.073 107.744 106.954 107.798 106.823C107.852 106.692 107.88 106.552 107.88 106.41C107.88 106.268 107.852 106.128 107.798 105.997C107.744 105.866 107.664 105.747 107.564 105.646C107.464 105.546 107.345 105.466 107.214 105.412C107.082 105.358 106.942 105.33 106.8 105.33Z" fill="#D7D7D7"/>
<path d="M3.64551 175.858L5.66895 169.604H6.96094L4.30176 177H3.4541L3.64551 175.858ZM1.95703 169.604L4.04199 175.893L4.18555 177H3.33789L0.658203 169.604H1.95703ZM12.4297 175.735V171.928C12.4297 171.636 12.3704 171.383 12.252 171.169C12.138 170.95 11.9648 170.782 11.7324 170.663C11.5 170.545 11.2129 170.485 10.8711 170.485C10.5521 170.485 10.2718 170.54 10.0303 170.649C9.79329 170.759 9.60645 170.902 9.46973 171.08C9.33757 171.258 9.27148 171.449 9.27148 171.654H8.00684C8.00684 171.39 8.0752 171.128 8.21191 170.868C8.34863 170.608 8.5446 170.374 8.7998 170.164C9.05957 169.95 9.36947 169.781 9.72949 169.658C10.0941 169.531 10.4997 169.467 10.9463 169.467C11.484 169.467 11.958 169.558 12.3682 169.74C12.7829 169.923 13.1064 170.198 13.3389 170.567C13.5758 170.932 13.6943 171.39 13.6943 171.941V175.387C13.6943 175.633 13.7148 175.895 13.7559 176.173C13.8014 176.451 13.8675 176.69 13.9541 176.891V177H12.6348C12.571 176.854 12.5208 176.66 12.4844 176.419C12.4479 176.173 12.4297 175.945 12.4297 175.735ZM12.6484 172.516L12.6621 173.404H11.3838C11.0238 173.404 10.7025 173.434 10.4199 173.493C10.1374 173.548 9.90039 173.632 9.70898 173.746C9.51758 173.86 9.37174 174.004 9.27148 174.177C9.17122 174.345 9.12109 174.544 9.12109 174.771C9.12109 175.004 9.1735 175.216 9.27832 175.407C9.38314 175.599 9.54036 175.751 9.75 175.865C9.96419 175.975 10.2262 176.029 10.5361 176.029C10.9235 176.029 11.2653 175.947 11.5615 175.783C11.8577 175.619 12.0924 175.419 12.2656 175.182C12.4434 174.945 12.5391 174.715 12.5527 174.491L13.0928 175.1C13.0609 175.291 12.9743 175.503 12.833 175.735C12.6917 175.968 12.5026 176.191 12.2656 176.405C12.0332 176.615 11.7552 176.79 11.4316 176.932C11.1126 177.068 10.7526 177.137 10.3516 177.137C9.85026 177.137 9.41048 177.039 9.03223 176.843C8.65853 176.647 8.36686 176.385 8.15723 176.057C7.95215 175.724 7.84961 175.353 7.84961 174.942C7.84961 174.546 7.92708 174.197 8.08203 173.896C8.23698 173.591 8.46029 173.338 8.75195 173.138C9.04362 172.933 9.39453 172.778 9.80469 172.673C10.2148 172.568 10.6729 172.516 11.1787 172.516H12.6484ZM10.4814 166.5L11.8008 168.51H10.7139L8.9502 166.5H10.4814ZM20.0107 169.604L21.6309 172.297L23.2715 169.604H24.7549L22.335 173.254L24.8301 177H23.3672L21.6582 174.225L19.9492 177H18.4795L20.9678 173.254L18.5547 169.604H20.0107ZM29.0342 177.137C28.5192 177.137 28.0521 177.05 27.6328 176.877C27.2181 176.699 26.8604 176.451 26.5596 176.132C26.2633 175.813 26.0355 175.435 25.876 174.997C25.7165 174.56 25.6367 174.081 25.6367 173.562V173.274C25.6367 172.673 25.7256 172.137 25.9033 171.668C26.0811 171.194 26.3226 170.793 26.6279 170.465C26.9333 170.137 27.2796 169.888 27.667 169.72C28.0544 169.551 28.4554 169.467 28.8701 169.467C29.3988 169.467 29.8545 169.558 30.2373 169.74C30.6247 169.923 30.9414 170.178 31.1875 170.506C31.4336 170.829 31.6159 171.212 31.7344 171.654C31.8529 172.092 31.9121 172.57 31.9121 173.09V173.657H26.3887V172.625H30.6475V172.529C30.6292 172.201 30.5609 171.882 30.4424 171.572C30.3285 171.262 30.1462 171.007 29.8955 170.807C29.6449 170.606 29.3031 170.506 28.8701 170.506C28.583 170.506 28.3187 170.567 28.0771 170.69C27.8356 170.809 27.6283 170.987 27.4551 171.224C27.2819 171.461 27.1475 171.75 27.0518 172.092C26.9561 172.434 26.9082 172.828 26.9082 173.274V173.562C26.9082 173.912 26.9561 174.243 27.0518 174.553C27.152 174.858 27.2956 175.127 27.4824 175.359C27.6738 175.592 27.904 175.774 28.1729 175.906C28.4463 176.038 28.7562 176.104 29.1025 176.104C29.5492 176.104 29.9274 176.013 30.2373 175.831C30.5472 175.649 30.8184 175.405 31.0508 175.1L31.8164 175.708C31.6569 175.95 31.4541 176.18 31.208 176.398C30.9619 176.617 30.6589 176.795 30.2988 176.932C29.9434 177.068 29.5218 177.137 29.0342 177.137ZM34.6465 171.073V177H33.375V169.604H34.5781L34.6465 171.073ZM34.3867 173.021L33.7988 173.001C33.8034 172.495 33.8695 172.028 33.9971 171.6C34.1247 171.167 34.3138 170.791 34.5645 170.472C34.8151 170.153 35.1273 169.907 35.501 169.733C35.8747 169.556 36.3076 169.467 36.7998 169.467C37.1462 169.467 37.4652 169.517 37.7568 169.617C38.0485 169.713 38.3014 169.866 38.5156 170.075C38.7298 170.285 38.8962 170.554 39.0146 170.882C39.1331 171.21 39.1924 171.606 39.1924 172.071V177H37.9277V172.133C37.9277 171.745 37.8617 171.436 37.7295 171.203C37.6019 170.971 37.4196 170.802 37.1826 170.697C36.9456 170.588 36.6676 170.533 36.3486 170.533C35.9749 170.533 35.6628 170.599 35.4121 170.731C35.1615 170.864 34.9609 171.046 34.8105 171.278C34.6602 171.511 34.5508 171.777 34.4824 172.078C34.4186 172.374 34.3867 172.689 34.3867 173.021ZM39.1787 172.324L38.3311 172.584C38.3356 172.178 38.4017 171.789 38.5293 171.415C38.6615 171.041 38.8506 170.709 39.0967 170.417C39.3473 170.125 39.6549 169.895 40.0195 169.727C40.3841 169.553 40.8011 169.467 41.2705 169.467C41.667 169.467 42.0179 169.519 42.3232 169.624C42.6331 169.729 42.8929 169.891 43.1025 170.109C43.3167 170.324 43.4785 170.599 43.5879 170.937C43.6973 171.274 43.752 171.675 43.752 172.14V177H42.4805V172.126C42.4805 171.711 42.4144 171.39 42.2822 171.162C42.1546 170.93 41.9723 170.768 41.7354 170.677C41.5029 170.581 41.2249 170.533 40.9014 170.533C40.6234 170.533 40.3773 170.581 40.1631 170.677C39.9489 170.772 39.7689 170.905 39.623 171.073C39.4772 171.237 39.3656 171.426 39.2881 171.641C39.2152 171.855 39.1787 172.083 39.1787 172.324ZM50.5127 166.5V177H49.2412V166.5H50.5127ZM56.9043 175.735V171.928C56.9043 171.636 56.8451 171.383 56.7266 171.169C56.6126 170.95 56.4395 170.782 56.207 170.663C55.9746 170.545 55.6875 170.485 55.3457 170.485C55.0267 170.485 54.7464 170.54 54.5049 170.649C54.2679 170.759 54.0811 170.902 53.9443 171.08C53.8122 171.258 53.7461 171.449 53.7461 171.654H52.4814C52.4814 171.39 52.5498 171.128 52.6865 170.868C52.8232 170.608 53.0192 170.374 53.2744 170.164C53.5342 169.95 53.8441 169.781 54.2041 169.658C54.5687 169.531 54.9743 169.467 55.4209 169.467C55.9587 169.467 56.4326 169.558 56.8428 169.74C57.2575 169.923 57.5811 170.198 57.8135 170.567C58.0505 170.932 58.1689 171.39 58.1689 171.941V175.387C58.1689 175.633 58.1895 175.895 58.2305 176.173C58.276 176.451 58.3421 176.69 58.4287 176.891V177H57.1094C57.0456 176.854 56.9954 176.66 56.959 176.419C56.9225 176.173 56.9043 175.945 56.9043 175.735ZM57.123 172.516L57.1367 173.404H55.8584C55.4984 173.404 55.1771 173.434 54.8945 173.493C54.612 173.548 54.375 173.632 54.1836 173.746C53.9922 173.86 53.8464 174.004 53.7461 174.177C53.6458 174.345 53.5957 174.544 53.5957 174.771C53.5957 175.004 53.6481 175.216 53.7529 175.407C53.8577 175.599 54.015 175.751 54.2246 175.865C54.4388 175.975 54.7008 176.029 55.0107 176.029C55.3981 176.029 55.7399 175.947 56.0361 175.783C56.3324 175.619 56.5671 175.419 56.7402 175.182C56.918 174.945 57.0137 174.715 57.0273 174.491L57.5674 175.1C57.5355 175.291 57.4489 175.503 57.3076 175.735C57.1663 175.968 56.9772 176.191 56.7402 176.405C56.5078 176.615 56.2298 176.79 55.9062 176.932C55.5872 177.068 55.2272 177.137 54.8262 177.137C54.3249 177.137 53.8851 177.039 53.5068 176.843C53.1331 176.647 52.8415 176.385 52.6318 176.057C52.4268 175.724 52.3242 175.353 52.3242 174.942C52.3242 174.546 52.4017 174.197 52.5566 173.896C52.7116 173.591 52.9349 173.338 53.2266 173.138C53.5182 172.933 53.8691 172.778 54.2793 172.673C54.6895 172.568 55.1475 172.516 55.6533 172.516H57.123ZM54.2246 178.682C54.2246 178.477 54.2861 178.303 54.4092 178.162C54.5368 178.021 54.7236 177.95 54.9697 177.95C55.2113 177.95 55.3958 178.021 55.5234 178.162C55.6556 178.303 55.7217 178.477 55.7217 178.682C55.7217 178.878 55.6556 179.044 55.5234 179.181C55.3958 179.322 55.2113 179.393 54.9697 179.393C54.7236 179.393 54.5368 179.322 54.4092 179.181C54.2861 179.044 54.2246 178.878 54.2246 178.682ZM61.5322 169.604V177H60.2607V169.604H61.5322ZM60.165 167.642C60.165 167.437 60.2266 167.263 60.3496 167.122C60.4772 166.981 60.6641 166.91 60.9102 166.91C61.1517 166.91 61.3363 166.981 61.4639 167.122C61.596 167.263 61.6621 167.437 61.6621 167.642C61.6621 167.838 61.596 168.006 61.4639 168.147C61.3363 168.284 61.1517 168.353 60.9102 168.353C60.6641 168.353 60.4772 168.284 60.3496 168.147C60.2266 168.006 60.165 167.838 60.165 167.642ZM70.1318 169.604V170.574H66.1328V169.604H70.1318ZM67.4863 167.806H68.751V175.168C68.751 175.419 68.7897 175.608 68.8672 175.735C68.9447 175.863 69.0449 175.947 69.168 175.988C69.291 176.029 69.4232 176.05 69.5645 176.05C69.6693 176.05 69.7786 176.041 69.8926 176.022C70.0111 176 70.0999 175.981 70.1592 175.968L70.166 177C70.0658 177.032 69.9336 177.062 69.7695 177.089C69.61 177.121 69.4163 177.137 69.1885 177.137C68.8786 177.137 68.5938 177.075 68.334 176.952C68.0742 176.829 67.8669 176.624 67.7119 176.337C67.5615 176.045 67.4863 175.653 67.4863 175.161V167.806ZM72.9893 169.604V177H71.7178V169.604H72.9893ZM71.6221 167.642C71.6221 167.437 71.6836 167.263 71.8066 167.122C71.9342 166.981 72.1211 166.91 72.3672 166.91C72.6087 166.91 72.7933 166.981 72.9209 167.122C73.0531 167.263 73.1191 167.437 73.1191 167.642C73.1191 167.838 73.0531 168.006 72.9209 168.147C72.7933 168.284 72.6087 168.353 72.3672 168.353C72.1211 168.353 71.9342 168.284 71.8066 168.147C71.6836 168.006 71.6221 167.838 71.6221 167.642ZM76.2842 171.183V177H75.0195V169.604H76.2158L76.2842 171.183ZM75.9834 173.021L75.457 173.001C75.4616 172.495 75.5368 172.028 75.6826 171.6C75.8285 171.167 76.0335 170.791 76.2979 170.472C76.5622 170.153 76.8766 169.907 77.2412 169.733C77.6104 169.556 78.0182 169.467 78.4648 169.467C78.8294 169.467 79.1576 169.517 79.4492 169.617C79.7409 169.713 79.9893 169.868 80.1943 170.082C80.404 170.296 80.5635 170.574 80.6729 170.916C80.7822 171.253 80.8369 171.666 80.8369 172.153V177H79.5654V172.14C79.5654 171.752 79.5085 171.442 79.3945 171.21C79.2806 170.973 79.1143 170.802 78.8955 170.697C78.6768 170.588 78.4079 170.533 78.0889 170.533C77.7744 170.533 77.4873 170.599 77.2275 170.731C76.9723 170.864 76.7513 171.046 76.5645 171.278C76.3822 171.511 76.2386 171.777 76.1338 172.078C76.0335 172.374 75.9834 172.689 75.9834 173.021ZM90.8926 175.564V166.5H92.1641V177H91.002L90.8926 175.564ZM85.916 173.384V173.24C85.916 172.675 85.9844 172.162 86.1211 171.702C86.2624 171.237 86.4606 170.839 86.7158 170.506C86.9756 170.173 87.2832 169.918 87.6387 169.74C87.9987 169.558 88.3997 169.467 88.8418 169.467C89.3066 169.467 89.7122 169.549 90.0586 169.713C90.4095 169.872 90.7057 170.107 90.9473 170.417C91.1934 170.722 91.387 171.091 91.5283 171.524C91.6696 171.957 91.7676 172.447 91.8223 172.994V173.623C91.7721 174.165 91.6742 174.653 91.5283 175.086C91.387 175.519 91.1934 175.888 90.9473 176.193C90.7057 176.499 90.4095 176.733 90.0586 176.897C89.7077 177.057 89.2975 177.137 88.8281 177.137C88.3952 177.137 87.9987 177.043 87.6387 176.856C87.2832 176.67 86.9756 176.408 86.7158 176.07C86.4606 175.733 86.2624 175.337 86.1211 174.881C85.9844 174.421 85.916 173.922 85.916 173.384ZM87.1875 173.24V173.384C87.1875 173.753 87.224 174.099 87.2969 174.423C87.3743 174.746 87.4928 175.031 87.6523 175.277C87.8118 175.523 88.0146 175.717 88.2607 175.858C88.5068 175.995 88.8008 176.063 89.1426 176.063C89.5618 176.063 89.9059 175.975 90.1748 175.797C90.4482 175.619 90.667 175.384 90.8311 175.093C90.9951 174.801 91.1227 174.484 91.2139 174.143V172.495C91.1592 172.244 91.0794 172.003 90.9746 171.771C90.8743 171.534 90.7422 171.324 90.5781 171.142C90.4186 170.955 90.2204 170.807 89.9834 170.697C89.751 170.588 89.4753 170.533 89.1562 170.533C88.8099 170.533 88.5114 170.606 88.2607 170.752C88.0146 170.893 87.8118 171.089 87.6523 171.34C87.4928 171.586 87.3743 171.873 87.2969 172.201C87.224 172.525 87.1875 172.871 87.1875 173.24ZM93.4492 167.532V168.571H89.0947V167.532H93.4492ZM98.959 175.735V171.928C98.959 171.636 98.8997 171.383 98.7812 171.169C98.6673 170.95 98.4941 170.782 98.2617 170.663C98.0293 170.545 97.7422 170.485 97.4004 170.485C97.0814 170.485 96.8011 170.54 96.5596 170.649C96.3226 170.759 96.1357 170.902 95.999 171.08C95.8669 171.258 95.8008 171.449 95.8008 171.654H94.5361C94.5361 171.39 94.6045 171.128 94.7412 170.868C94.8779 170.608 95.0739 170.374 95.3291 170.164C95.5889 169.95 95.8988 169.781 96.2588 169.658C96.6234 169.531 97.029 169.467 97.4756 169.467C98.0133 169.467 98.4873 169.558 98.8975 169.74C99.3122 169.923 99.6357 170.198 99.8682 170.567C100.105 170.932 100.224 171.39 100.224 171.941V175.387C100.224 175.633 100.244 175.895 100.285 176.173C100.331 176.451 100.397 176.69 100.483 176.891V177H99.1641C99.1003 176.854 99.0501 176.66 99.0137 176.419C98.9772 176.173 98.959 175.945 98.959 175.735ZM99.1777 172.516L99.1914 173.404H97.9131C97.5531 173.404 97.2318 173.434 96.9492 173.493C96.6667 173.548 96.4297 173.632 96.2383 173.746C96.0469 173.86 95.901 174.004 95.8008 174.177C95.7005 174.345 95.6504 174.544 95.6504 174.771C95.6504 175.004 95.7028 175.216 95.8076 175.407C95.9124 175.599 96.0697 175.751 96.2793 175.865C96.4935 175.975 96.7555 176.029 97.0654 176.029C97.4528 176.029 97.7946 175.947 98.0908 175.783C98.387 175.619 98.6217 175.419 98.7949 175.182C98.9727 174.945 99.0684 174.715 99.082 174.491L99.6221 175.1C99.5902 175.291 99.5036 175.503 99.3623 175.735C99.221 175.968 99.0319 176.191 98.7949 176.405C98.5625 176.615 98.2845 176.79 97.9609 176.932C97.6419 177.068 97.2819 177.137 96.8809 177.137C96.3796 177.137 95.9398 177.039 95.5615 176.843C95.1878 176.647 94.8962 176.385 94.6865 176.057C94.4814 175.724 94.3789 175.353 94.3789 174.942C94.3789 174.546 94.4564 174.197 94.6113 173.896C94.7663 173.591 94.9896 173.338 95.2812 173.138C95.5729 172.933 95.9238 172.778 96.334 172.673C96.7441 172.568 97.2021 172.516 97.708 172.516H99.1777ZM99.1846 166.637L100.039 166.712C100.039 167.045 99.973 167.336 99.8408 167.587C99.7087 167.838 99.5309 168.031 99.3076 168.168C99.0889 168.305 98.8405 168.373 98.5625 168.373C98.3301 168.373 98.1387 168.341 97.9883 168.277C97.8379 168.209 97.7035 168.134 97.585 168.052C97.4665 167.965 97.3411 167.89 97.209 167.826C97.0814 167.758 96.9219 167.724 96.7305 167.724C96.5391 167.724 96.3773 167.797 96.2451 167.942C96.1175 168.088 96.0537 168.268 96.0537 168.482L95.1992 168.441C95.1992 168.109 95.263 167.817 95.3906 167.566C95.5228 167.311 95.7005 167.113 95.9238 166.972C96.1471 166.826 96.3955 166.753 96.6689 166.753C96.8649 166.753 97.0358 166.787 97.1816 166.855C97.332 166.919 97.4733 166.994 97.6055 167.081C97.7376 167.163 97.8743 167.238 98.0156 167.307C98.1569 167.37 98.3187 167.402 98.501 167.402C98.6924 167.402 98.8542 167.329 98.9863 167.184C99.1185 167.033 99.1846 166.851 99.1846 166.637ZM107.06 166.5V177H105.788V166.5H107.06ZM116.015 169.009H116.985C116.985 169.506 116.919 169.923 116.787 170.26C116.66 170.597 116.434 170.85 116.11 171.019C115.787 171.187 115.331 171.271 114.743 171.271V170.492C115.153 170.492 115.447 170.442 115.625 170.342C115.803 170.237 115.912 170.075 115.953 169.856C115.994 169.638 116.015 169.355 116.015 169.009ZM113.615 175.291V169.604H114.887V177H113.677L113.615 175.291ZM113.854 173.732L114.381 173.719C114.381 174.211 114.328 174.667 114.224 175.086C114.123 175.501 113.959 175.861 113.731 176.166C113.504 176.471 113.205 176.711 112.836 176.884C112.467 177.052 112.018 177.137 111.489 177.137C111.129 177.137 110.799 177.084 110.498 176.979C110.202 176.875 109.947 176.713 109.732 176.494C109.518 176.275 109.352 175.991 109.233 175.64C109.119 175.289 109.062 174.867 109.062 174.375V169.604H110.327V174.389C110.327 174.721 110.364 174.997 110.437 175.216C110.514 175.43 110.617 175.601 110.744 175.729C110.876 175.852 111.022 175.938 111.182 175.988C111.346 176.038 111.514 176.063 111.688 176.063C112.225 176.063 112.651 175.961 112.966 175.756C113.28 175.546 113.506 175.266 113.643 174.915C113.784 174.56 113.854 174.165 113.854 173.732ZM122.283 175.291V169.604H123.555V177H122.345L122.283 175.291ZM122.522 173.732L123.049 173.719C123.049 174.211 122.996 174.667 122.892 175.086C122.791 175.501 122.627 175.861 122.399 176.166C122.172 176.471 121.873 176.711 121.504 176.884C121.135 177.052 120.686 177.137 120.157 177.137C119.797 177.137 119.467 177.084 119.166 176.979C118.87 176.875 118.615 176.713 118.4 176.494C118.186 176.275 118.02 175.991 117.901 175.64C117.787 175.289 117.73 174.867 117.73 174.375V169.604H118.995V174.389C118.995 174.721 119.032 174.997 119.104 175.216C119.182 175.43 119.285 175.601 119.412 175.729C119.544 175.852 119.69 175.938 119.85 175.988C120.014 176.038 120.182 176.063 120.355 176.063C120.893 176.063 121.319 175.961 121.634 175.756C121.948 175.546 122.174 175.266 122.311 174.915C122.452 174.56 122.522 174.165 122.522 173.732ZM132.052 169.604V170.574H128.053V169.604H132.052ZM129.406 167.806H130.671V175.168C130.671 175.419 130.71 175.608 130.787 175.735C130.865 175.863 130.965 175.947 131.088 175.988C131.211 176.029 131.343 176.05 131.484 176.05C131.589 176.05 131.699 176.041 131.812 176.022C131.931 176 132.02 175.981 132.079 175.968L132.086 177C131.986 177.032 131.854 177.062 131.689 177.089C131.53 177.121 131.336 177.137 131.108 177.137C130.799 177.137 130.514 177.075 130.254 176.952C129.994 176.829 129.787 176.624 129.632 176.337C129.481 176.045 129.406 175.653 129.406 175.161V167.806ZM137.896 175.735V171.928C137.896 171.636 137.837 171.383 137.719 171.169C137.605 170.95 137.432 170.782 137.199 170.663C136.967 170.545 136.68 170.485 136.338 170.485C136.019 170.485 135.739 170.54 135.497 170.649C135.26 170.759 135.073 170.902 134.937 171.08C134.804 171.258 134.738 171.449 134.738 171.654H133.474C133.474 171.39 133.542 171.128 133.679 170.868C133.815 170.608 134.011 170.374 134.267 170.164C134.526 169.95 134.836 169.781 135.196 169.658C135.561 169.531 135.966 169.467 136.413 169.467C136.951 169.467 137.425 169.558 137.835 169.74C138.25 169.923 138.573 170.198 138.806 170.567C139.043 170.932 139.161 171.39 139.161 171.941V175.387C139.161 175.633 139.182 175.895 139.223 176.173C139.268 176.451 139.334 176.69 139.421 176.891V177H138.102C138.038 176.854 137.988 176.66 137.951 176.419C137.915 176.173 137.896 175.945 137.896 175.735ZM138.115 172.516L138.129 173.404H136.851C136.491 173.404 136.169 173.434 135.887 173.493C135.604 173.548 135.367 173.632 135.176 173.746C134.984 173.86 134.839 174.004 134.738 174.177C134.638 174.345 134.588 174.544 134.588 174.771C134.588 175.004 134.64 175.216 134.745 175.407C134.85 175.599 135.007 175.751 135.217 175.865C135.431 175.975 135.693 176.029 136.003 176.029C136.39 176.029 136.732 175.947 137.028 175.783C137.325 175.619 137.559 175.419 137.732 175.182C137.91 174.945 138.006 174.715 138.02 174.491L138.56 175.1C138.528 175.291 138.441 175.503 138.3 175.735C138.159 175.968 137.969 176.191 137.732 176.405C137.5 176.615 137.222 176.79 136.898 176.932C136.579 177.068 136.219 177.137 135.818 177.137C135.317 177.137 134.877 177.039 134.499 176.843C134.125 176.647 133.834 176.385 133.624 176.057C133.419 175.724 133.316 175.353 133.316 174.942C133.316 174.546 133.394 174.197 133.549 173.896C133.704 173.591 133.927 173.338 134.219 173.138C134.51 172.933 134.861 172.778 135.271 172.673C135.682 172.568 136.14 172.516 136.646 172.516H138.115ZM135.217 178.682C135.217 178.477 135.278 178.303 135.401 178.162C135.529 178.021 135.716 177.95 135.962 177.95C136.203 177.95 136.388 178.021 136.516 178.162C136.648 178.303 136.714 178.477 136.714 178.682C136.714 178.878 136.648 179.044 136.516 179.181C136.388 179.322 136.203 179.393 135.962 179.393C135.716 179.393 135.529 179.322 135.401 179.181C135.278 179.044 135.217 178.878 135.217 178.682ZM142.524 169.604V177H141.253V169.604H142.524ZM141.157 167.642C141.157 167.437 141.219 167.263 141.342 167.122C141.469 166.981 141.656 166.91 141.902 166.91C142.144 166.91 142.328 166.981 142.456 167.122C142.588 167.263 142.654 167.437 142.654 167.642C142.654 167.838 142.588 168.006 142.456 168.147C142.328 168.284 142.144 168.353 141.902 168.353C141.656 168.353 141.469 168.284 141.342 168.147C141.219 168.006 141.157 167.838 141.157 167.642ZM152.689 175.564V166.5H153.961V177H152.799L152.689 175.564ZM147.713 173.384V173.24C147.713 172.675 147.781 172.162 147.918 171.702C148.059 171.237 148.257 170.839 148.513 170.506C148.772 170.173 149.08 169.918 149.436 169.74C149.796 169.558 150.197 169.467 150.639 169.467C151.104 169.467 151.509 169.549 151.855 169.713C152.206 169.872 152.503 170.107 152.744 170.417C152.99 170.722 153.184 171.091 153.325 171.524C153.466 171.957 153.564 172.447 153.619 172.994V173.623C153.569 174.165 153.471 174.653 153.325 175.086C153.184 175.519 152.99 175.888 152.744 176.193C152.503 176.499 152.206 176.733 151.855 176.897C151.505 177.057 151.094 177.137 150.625 177.137C150.192 177.137 149.796 177.043 149.436 176.856C149.08 176.67 148.772 176.408 148.513 176.07C148.257 175.733 148.059 175.337 147.918 174.881C147.781 174.421 147.713 173.922 147.713 173.384ZM148.984 173.24V173.384C148.984 173.753 149.021 174.099 149.094 174.423C149.171 174.746 149.29 175.031 149.449 175.277C149.609 175.523 149.812 175.717 150.058 175.858C150.304 175.995 150.598 176.063 150.939 176.063C151.359 176.063 151.703 175.975 151.972 175.797C152.245 175.619 152.464 175.384 152.628 175.093C152.792 174.801 152.92 174.484 153.011 174.143V172.495C152.956 172.244 152.876 172.003 152.771 171.771C152.671 171.534 152.539 171.324 152.375 171.142C152.215 170.955 152.017 170.807 151.78 170.697C151.548 170.588 151.272 170.533 150.953 170.533C150.607 170.533 150.308 170.606 150.058 170.752C149.812 170.893 149.609 171.089 149.449 171.34C149.29 171.586 149.171 171.873 149.094 172.201C149.021 172.525 148.984 172.871 148.984 173.24ZM155.246 167.532V168.571H150.892V167.532H155.246ZM160.756 175.735V171.928C160.756 171.636 160.697 171.383 160.578 171.169C160.464 170.95 160.291 170.782 160.059 170.663C159.826 170.545 159.539 170.485 159.197 170.485C158.878 170.485 158.598 170.54 158.356 170.649C158.119 170.759 157.933 170.902 157.796 171.08C157.664 171.258 157.598 171.449 157.598 171.654H156.333C156.333 171.39 156.401 171.128 156.538 170.868C156.675 170.608 156.871 170.374 157.126 170.164C157.386 169.95 157.696 169.781 158.056 169.658C158.42 169.531 158.826 169.467 159.272 169.467C159.81 169.467 160.284 169.558 160.694 169.74C161.109 169.923 161.433 170.198 161.665 170.567C161.902 170.932 162.021 171.39 162.021 171.941V175.387C162.021 175.633 162.041 175.895 162.082 176.173C162.128 176.451 162.194 176.69 162.28 176.891V177H160.961C160.897 176.854 160.847 176.66 160.811 176.419C160.774 176.173 160.756 175.945 160.756 175.735ZM160.975 172.516L160.988 173.404H159.71C159.35 173.404 159.029 173.434 158.746 173.493C158.464 173.548 158.227 173.632 158.035 173.746C157.844 173.86 157.698 174.004 157.598 174.177C157.497 174.345 157.447 174.544 157.447 174.771C157.447 175.004 157.5 175.216 157.604 175.407C157.709 175.599 157.867 175.751 158.076 175.865C158.29 175.975 158.552 176.029 158.862 176.029C159.25 176.029 159.591 175.947 159.888 175.783C160.184 175.619 160.419 175.419 160.592 175.182C160.77 174.945 160.865 174.715 160.879 174.491L161.419 175.1C161.387 175.291 161.3 175.503 161.159 175.735C161.018 175.968 160.829 176.191 160.592 176.405C160.359 176.615 160.081 176.79 159.758 176.932C159.439 177.068 159.079 177.137 158.678 177.137C158.176 177.137 157.737 177.039 157.358 176.843C156.985 176.647 156.693 176.385 156.483 176.057C156.278 175.724 156.176 175.353 156.176 174.942C156.176 174.546 156.253 174.197 156.408 173.896C156.563 173.591 156.786 173.338 157.078 173.138C157.37 172.933 157.721 172.778 158.131 172.673C158.541 172.568 158.999 172.516 159.505 172.516H160.975ZM159.792 166.5L161.487 168.366V168.435H160.435L159.409 167.279L158.391 168.435H157.352V168.359L159.026 166.5H159.792ZM165.979 176.234L168.036 169.604H169.39L166.423 178.142C166.354 178.324 166.263 178.52 166.149 178.729C166.04 178.944 165.899 179.146 165.726 179.338C165.552 179.529 165.343 179.684 165.097 179.803C164.855 179.926 164.566 179.987 164.229 179.987C164.128 179.987 164.001 179.974 163.846 179.946C163.691 179.919 163.581 179.896 163.518 179.878L163.511 178.853C163.547 178.857 163.604 178.862 163.682 178.866C163.764 178.875 163.821 178.88 163.853 178.88C164.14 178.88 164.383 178.841 164.584 178.764C164.785 178.691 164.953 178.565 165.09 178.388C165.231 178.215 165.352 177.975 165.452 177.67L165.979 176.234ZM164.468 169.604L166.389 175.346L166.717 176.679L165.808 177.144L163.087 169.604H164.468Z" fill="#999999"/>
<path fill-rule="evenodd" clip-rule="evenodd" d="M66.8329 142.6C65.4233 142.6 64.1999 143.846 64.1999 145.486C64.1999 146.266 64.4881 147.005 64.9878 147.543L70.0499 152.995L75.112 147.543C75.6117 147.005 75.8999 146.266 75.8999 145.486C75.8999 143.846 74.6765 142.6 73.2669 142.6C72.5848 142.6 71.9199 142.891 71.4218 143.428L70.5262 144.392C70.4032 144.525 70.2306 144.6 70.0499 144.6C69.8692 144.6 69.6966 144.525 69.5736 144.392L68.678 143.428C68.1799 142.891 67.515 142.6 66.8329 142.6ZM62.8999 145.486C62.8999 143.22 64.6162 141.3 66.8329 141.3C67.8922 141.3 68.8974 141.754 69.6306 142.543L70.0499 142.995L70.4692 142.543L70.9455 142.986L70.4692 142.543C71.2024 141.754 72.2076 141.3 73.2669 141.3C75.4836 141.3 77.1999 143.22 77.1999 145.486C77.1999 146.581 76.7964 147.64 76.0646 148.428L70.5262 154.392C70.4032 154.525 70.2306 154.6 70.0499 154.6C69.8692 154.6 69.6966 154.525 69.5736 154.392L64.0352 148.428L64.5115 147.986L64.0352 148.428C63.3034 147.64 62.8999 146.581 62.8999 145.486Z" fill="#2C2C2C"/>
<path d="M33.8955 148.345H31.373L31.3594 147.285H33.6494C34.0277 147.285 34.3581 147.221 34.6406 147.094C34.9232 146.966 35.1419 146.784 35.2969 146.547C35.4564 146.305 35.5361 146.018 35.5361 145.686C35.5361 145.321 35.4655 145.025 35.3242 144.797C35.1875 144.564 34.9756 144.396 34.6885 144.291C34.4059 144.182 34.0459 144.127 33.6084 144.127H31.667V153H30.3477V143.047H33.6084C34.1188 143.047 34.5745 143.099 34.9756 143.204C35.3766 143.304 35.7161 143.464 35.9941 143.683C36.2767 143.897 36.4909 144.17 36.6367 144.503C36.7826 144.836 36.8555 145.234 36.8555 145.699C36.8555 146.109 36.7507 146.481 36.541 146.813C36.3314 147.142 36.0397 147.41 35.666 147.62C35.2969 147.83 34.8639 147.964 34.3672 148.023L33.8955 148.345ZM33.834 153H30.8535L31.5986 151.927H33.834C34.2533 151.927 34.6087 151.854 34.9004 151.708C35.1966 151.562 35.4222 151.357 35.5771 151.093C35.7321 150.824 35.8096 150.507 35.8096 150.143C35.8096 149.773 35.7435 149.454 35.6113 149.186C35.4792 148.917 35.2718 148.709 34.9893 148.563C34.7067 148.418 34.3421 148.345 33.8955 148.345H32.0156L32.0293 147.285H34.5996L34.8799 147.668C35.3584 147.709 35.764 147.846 36.0967 148.078C36.4294 148.306 36.6823 148.598 36.8555 148.953C37.0332 149.309 37.1221 149.701 37.1221 150.129C37.1221 150.749 36.9854 151.273 36.7119 151.701C36.443 152.125 36.0625 152.449 35.5703 152.672C35.0781 152.891 34.4993 153 33.834 153ZM43.2402 151.735V147.928C43.2402 147.636 43.181 147.383 43.0625 147.169C42.9486 146.95 42.7754 146.782 42.543 146.663C42.3105 146.545 42.0234 146.485 41.6816 146.485C41.3626 146.485 41.0824 146.54 40.8408 146.649C40.6038 146.759 40.417 146.902 40.2803 147.08C40.1481 147.258 40.082 147.449 40.082 147.654H38.8174C38.8174 147.39 38.8857 147.128 39.0225 146.868C39.1592 146.608 39.3551 146.374 39.6104 146.164C39.8701 145.95 40.18 145.781 40.54 145.658C40.9046 145.531 41.3102 145.467 41.7568 145.467C42.2946 145.467 42.7686 145.558 43.1787 145.74C43.5934 145.923 43.917 146.198 44.1494 146.567C44.3864 146.932 44.5049 147.39 44.5049 147.941V151.387C44.5049 151.633 44.5254 151.895 44.5664 152.173C44.612 152.451 44.6781 152.69 44.7646 152.891V153H43.4453C43.3815 152.854 43.3314 152.66 43.2949 152.419C43.2585 152.173 43.2402 151.945 43.2402 151.735ZM43.459 148.516L43.4727 149.404H42.1943C41.8343 149.404 41.513 149.434 41.2305 149.493C40.9479 149.548 40.7109 149.632 40.5195 149.746C40.3281 149.86 40.1823 150.004 40.082 150.177C39.9818 150.345 39.9316 150.544 39.9316 150.771C39.9316 151.004 39.984 151.216 40.0889 151.407C40.1937 151.599 40.3509 151.751 40.5605 151.865C40.7747 151.975 41.0368 152.029 41.3467 152.029C41.734 152.029 42.0758 151.947 42.3721 151.783C42.6683 151.619 42.903 151.419 43.0762 151.182C43.2539 150.945 43.3496 150.715 43.3633 150.491L43.9033 151.1C43.8714 151.291 43.7848 151.503 43.6436 151.735C43.5023 151.968 43.3132 152.191 43.0762 152.405C42.8438 152.615 42.5658 152.79 42.2422 152.932C41.9232 153.068 41.5632 153.137 41.1621 153.137C40.6608 153.137 40.221 153.039 39.8428 152.843C39.4691 152.647 39.1774 152.385 38.9678 152.057C38.7627 151.724 38.6602 151.353 38.6602 150.942C38.6602 150.546 38.7376 150.197 38.8926 149.896C39.0475 149.591 39.2708 149.338 39.5625 149.138C39.8542 148.933 40.2051 148.778 40.6152 148.673C41.0254 148.568 41.4834 148.516 41.9893 148.516H43.459ZM39.3848 144.51L41.374 142.719H42.4131L44.4023 144.51H43.0557L41.8936 143.43L40.7314 144.51H39.3848ZM43.8965 143.3L44.8604 141.536H46.2275L44.8535 143.3H43.8965ZM47.752 147.073V153H46.4805V145.604H47.6836L47.752 147.073ZM47.4922 149.021L46.9043 149.001C46.9089 148.495 46.9749 148.028 47.1025 147.6C47.2301 147.167 47.4193 146.791 47.6699 146.472C47.9206 146.153 48.2327 145.907 48.6064 145.733C48.9801 145.556 49.4131 145.467 49.9053 145.467C50.2516 145.467 50.5706 145.517 50.8623 145.617C51.154 145.713 51.4069 145.866 51.6211 146.075C51.8353 146.285 52.0016 146.554 52.1201 146.882C52.2386 147.21 52.2979 147.606 52.2979 148.071V153H51.0332V148.133C51.0332 147.745 50.9671 147.436 50.835 147.203C50.7074 146.971 50.5251 146.802 50.2881 146.697C50.0511 146.588 49.7731 146.533 49.4541 146.533C49.0804 146.533 48.7682 146.599 48.5176 146.731C48.2669 146.864 48.0664 147.046 47.916 147.278C47.7656 147.511 47.6562 147.777 47.5879 148.078C47.5241 148.374 47.4922 148.689 47.4922 149.021ZM52.2842 148.324L51.4365 148.584C51.4411 148.178 51.5072 147.789 51.6348 147.415C51.7669 147.041 51.9561 146.709 52.2021 146.417C52.4528 146.125 52.7604 145.895 53.125 145.727C53.4896 145.553 53.9066 145.467 54.376 145.467C54.7725 145.467 55.1234 145.519 55.4287 145.624C55.7386 145.729 55.9984 145.891 56.208 146.109C56.4222 146.324 56.584 146.599 56.6934 146.937C56.8027 147.274 56.8574 147.675 56.8574 148.14V153H55.5859V148.126C55.5859 147.711 55.5199 147.39 55.3877 147.162C55.2601 146.93 55.0778 146.768 54.8408 146.677C54.6084 146.581 54.3304 146.533 54.0068 146.533C53.7288 146.533 53.4827 146.581 53.2686 146.677C53.0544 146.772 52.8743 146.905 52.7285 147.073C52.5827 147.237 52.471 147.426 52.3936 147.641C52.3206 147.855 52.2842 148.083 52.2842 148.324Z" fill="#999999"/>
<path d="M87.626 151.564V142.5H88.8975V153H87.7354L87.626 151.564ZM82.6494 149.384V149.24C82.6494 148.675 82.7178 148.162 82.8545 147.702C82.9958 147.237 83.194 146.839 83.4492 146.506C83.709 146.173 84.0166 145.918 84.3721 145.74C84.7321 145.558 85.1331 145.467 85.5752 145.467C86.04 145.467 86.4456 145.549 86.792 145.713C87.1429 145.872 87.4391 146.107 87.6807 146.417C87.9268 146.722 88.1204 147.091 88.2617 147.524C88.403 147.957 88.501 148.447 88.5557 148.994V149.623C88.5055 150.165 88.4076 150.653 88.2617 151.086C88.1204 151.519 87.9268 151.888 87.6807 152.193C87.4391 152.499 87.1429 152.733 86.792 152.897C86.4411 153.057 86.0309 153.137 85.5615 153.137C85.1286 153.137 84.7321 153.043 84.3721 152.856C84.0166 152.67 83.709 152.408 83.4492 152.07C83.194 151.733 82.9958 151.337 82.8545 150.881C82.7178 150.421 82.6494 149.922 82.6494 149.384ZM83.9209 149.24V149.384C83.9209 149.753 83.9574 150.099 84.0303 150.423C84.1077 150.746 84.2262 151.031 84.3857 151.277C84.5452 151.523 84.748 151.717 84.9941 151.858C85.2402 151.995 85.5342 152.063 85.876 152.063C86.2952 152.063 86.6393 151.975 86.9082 151.797C87.1816 151.619 87.4004 151.384 87.5645 151.093C87.7285 150.801 87.8561 150.484 87.9473 150.143V148.495C87.8926 148.244 87.8128 148.003 87.708 147.771C87.6077 147.534 87.4756 147.324 87.3115 147.142C87.152 146.955 86.9538 146.807 86.7168 146.697C86.4844 146.588 86.2087 146.533 85.8896 146.533C85.5433 146.533 85.2448 146.606 84.9941 146.752C84.748 146.893 84.5452 147.089 84.3857 147.34C84.2262 147.586 84.1077 147.873 84.0303 148.201C83.9574 148.525 83.9209 148.871 83.9209 149.24ZM90.1826 143.532V144.571H85.8281V143.532H90.1826ZM94.4004 153.137C93.8854 153.137 93.4183 153.05 92.999 152.877C92.5843 152.699 92.2266 152.451 91.9258 152.132C91.6296 151.813 91.4017 151.435 91.2422 150.997C91.0827 150.56 91.0029 150.081 91.0029 149.562V149.274C91.0029 148.673 91.0918 148.137 91.2695 147.668C91.4473 147.194 91.6888 146.793 91.9941 146.465C92.2995 146.137 92.6458 145.888 93.0332 145.72C93.4206 145.551 93.8216 145.467 94.2363 145.467C94.765 145.467 95.2207 145.558 95.6035 145.74C95.9909 145.923 96.3076 146.178 96.5537 146.506C96.7998 146.829 96.9821 147.212 97.1006 147.654C97.2191 148.092 97.2783 148.57 97.2783 149.09V149.657H91.7549V148.625H96.0137V148.529C95.9954 148.201 95.9271 147.882 95.8086 147.572C95.6947 147.262 95.5124 147.007 95.2617 146.807C95.0111 146.606 94.6693 146.506 94.2363 146.506C93.9492 146.506 93.6849 146.567 93.4434 146.69C93.2018 146.809 92.9945 146.987 92.8213 147.224C92.6481 147.461 92.5137 147.75 92.418 148.092C92.3223 148.434 92.2744 148.828 92.2744 149.274V149.562C92.2744 149.912 92.3223 150.243 92.418 150.553C92.5182 150.858 92.6618 151.127 92.8486 151.359C93.04 151.592 93.2702 151.774 93.5391 151.906C93.8125 152.038 94.1224 152.104 94.4688 152.104C94.9154 152.104 95.2936 152.013 95.6035 151.831C95.9134 151.649 96.1846 151.405 96.417 151.1L97.1826 151.708C97.0231 151.95 96.8203 152.18 96.5742 152.398C96.3281 152.617 96.0251 152.795 95.665 152.932C95.3096 153.068 94.888 153.137 94.4004 153.137ZM94.8584 142.828L96.7314 144.626H95.5625L94.2158 143.354L92.876 144.626H91.7139L93.5732 142.828H94.8584ZM96.9434 143.683H96.1572L96.1504 142.78C96.3509 142.767 96.5127 142.746 96.6357 142.719C96.7588 142.691 96.8499 142.65 96.9092 142.596C96.9684 142.536 96.998 142.457 96.998 142.356C96.998 142.243 96.9548 142.154 96.8682 142.09C96.7816 142.021 96.6654 141.974 96.5195 141.946C96.3737 141.914 96.2119 141.898 96.0342 141.898L96.0752 141.263C96.3669 141.263 96.6221 141.29 96.8408 141.345C97.0641 141.395 97.251 141.47 97.4014 141.57C97.5563 141.666 97.6725 141.782 97.75 141.919C97.8275 142.051 97.8662 142.201 97.8662 142.37C97.8662 142.666 97.7705 142.883 97.5791 143.02C97.3923 143.152 97.1826 143.234 96.9502 143.266L96.9434 143.683ZM103.602 142.5V153H102.33V142.5H103.602ZM112.557 145.009H113.527C113.527 145.506 113.461 145.923 113.329 146.26C113.201 146.597 112.976 146.85 112.652 147.019C112.329 147.187 111.873 147.271 111.285 147.271V146.492C111.695 146.492 111.989 146.442 112.167 146.342C112.345 146.237 112.454 146.075 112.495 145.856C112.536 145.638 112.557 145.355 112.557 145.009ZM110.157 151.291V145.604H111.429V153H110.219L110.157 151.291ZM110.396 149.732L110.923 149.719C110.923 150.211 110.87 150.667 110.766 151.086C110.665 151.501 110.501 151.861 110.273 152.166C110.046 152.471 109.747 152.711 109.378 152.884C109.009 153.052 108.56 153.137 108.031 153.137C107.671 153.137 107.341 153.084 107.04 152.979C106.744 152.875 106.489 152.713 106.274 152.494C106.06 152.275 105.894 151.991 105.775 151.64C105.661 151.289 105.604 150.867 105.604 150.375V145.604H106.869V150.389C106.869 150.721 106.906 150.997 106.979 151.216C107.056 151.43 107.159 151.601 107.286 151.729C107.418 151.852 107.564 151.938 107.724 151.988C107.888 152.038 108.056 152.063 108.229 152.063C108.767 152.063 109.193 151.961 109.508 151.756C109.822 151.546 110.048 151.266 110.185 150.915C110.326 150.56 110.396 150.165 110.396 149.732ZM118.825 151.291V145.604H120.097V153H118.887L118.825 151.291ZM119.064 149.732L119.591 149.719C119.591 150.211 119.538 150.667 119.434 151.086C119.333 151.501 119.169 151.861 118.941 152.166C118.714 152.471 118.415 152.711 118.046 152.884C117.677 153.052 117.228 153.137 116.699 153.137C116.339 153.137 116.009 153.084 115.708 152.979C115.412 152.875 115.157 152.713 114.942 152.494C114.728 152.275 114.562 151.991 114.443 151.64C114.329 151.289 114.272 150.867 114.272 150.375V145.604H115.537V150.389C115.537 150.721 115.574 150.997 115.646 151.216C115.724 151.43 115.826 151.601 115.954 151.729C116.086 151.852 116.232 151.938 116.392 151.988C116.556 152.038 116.724 152.063 116.897 152.063C117.435 152.063 117.861 151.961 118.176 151.756C118.49 151.546 118.716 151.266 118.853 150.915C118.994 150.56 119.064 150.165 119.064 149.732ZM128.594 145.604V146.574H124.595V145.604H128.594ZM125.948 143.806H127.213V151.168C127.213 151.419 127.252 151.608 127.329 151.735C127.407 151.863 127.507 151.947 127.63 151.988C127.753 152.029 127.885 152.05 128.026 152.05C128.131 152.05 128.241 152.041 128.354 152.022C128.473 152 128.562 151.981 128.621 151.968L128.628 153C128.528 153.032 128.396 153.062 128.231 153.089C128.072 153.121 127.878 153.137 127.65 153.137C127.34 153.137 127.056 153.075 126.796 152.952C126.536 152.829 126.329 152.624 126.174 152.337C126.023 152.045 125.948 151.653 125.948 151.161V143.806ZM131.451 145.604V153H130.18V145.604H131.451ZM130.084 143.642C130.084 143.437 130.146 143.263 130.269 143.122C130.396 142.981 130.583 142.91 130.829 142.91C131.071 142.91 131.255 142.981 131.383 143.122C131.515 143.263 131.581 143.437 131.581 143.642C131.581 143.838 131.515 144.006 131.383 144.147C131.255 144.284 131.071 144.353 130.829 144.353C130.583 144.353 130.396 144.284 130.269 144.147C130.146 144.006 130.084 143.838 130.084 143.642ZM134.746 147.183V153H133.481V145.604H134.678L134.746 147.183ZM134.445 149.021L133.919 149.001C133.924 148.495 133.999 148.028 134.145 147.6C134.29 147.167 134.495 146.791 134.76 146.472C135.024 146.153 135.339 145.907 135.703 145.733C136.072 145.556 136.48 145.467 136.927 145.467C137.291 145.467 137.619 145.517 137.911 145.617C138.203 145.713 138.451 145.868 138.656 146.082C138.866 146.296 139.025 146.574 139.135 146.916C139.244 147.253 139.299 147.666 139.299 148.153V153H138.027V148.14C138.027 147.752 137.97 147.442 137.856 147.21C137.743 146.973 137.576 146.802 137.357 146.697C137.139 146.588 136.87 146.533 136.551 146.533C136.236 146.533 135.949 146.599 135.689 146.731C135.434 146.864 135.213 147.046 135.026 147.278C134.844 147.511 134.701 147.777 134.596 148.078C134.495 148.374 134.445 148.689 134.445 149.021Z" fill="#999999"/>
</svg>
