<svg width="130" height="130" viewBox="0 0 130 130" fill="none" xmlns="http://www.w3.org/2000/svg">
<circle cx="65" cy="64.5" r="60" fill="#E8FEFF"/>
<path d="M64.9998 48.3459C74.5586 48.3459 82.3075 40.5969 82.3075 31.0382C82.3075 21.4794 74.5586 13.7305 64.9998 13.7305C55.4411 13.7305 47.6921 21.4794 47.6921 31.0382C47.6921 40.5969 55.4411 48.3459 64.9998 48.3459Z" fill="white" stroke="#009BA1" stroke-width="2" stroke-linecap="round" stroke-linejoin="round"/>
<path d="M60.673 38.2492H67.1634C68.1197 38.2492 69.0369 37.8694 69.7131 37.1931C70.3893 36.5169 70.7692 35.5998 70.7692 34.6435C70.7692 33.6872 70.3893 32.77 69.7131 32.0938C69.0369 31.4176 68.1197 31.0377 67.1634 31.0377H62.8365C61.8802 31.0377 60.963 30.6578 60.2868 29.9816C59.6106 29.3054 59.2307 28.3883 59.2307 27.4319C59.2307 26.4756 59.6106 25.5585 60.2868 24.8823C60.963 24.2061 61.8802 23.8262 62.8365 23.8262H69.3269" stroke="#009BA1" stroke-width="2" stroke-linecap="round" stroke-linejoin="round"/>
<path d="M64.9998 20.9414V23.826" stroke="#009BA1" stroke-width="2" stroke-linecap="round" stroke-linejoin="round"/>
<path d="M64.9998 38.25V41.1346" stroke="#009BA1" stroke-width="2" stroke-linecap="round" stroke-linejoin="round"/>
<path d="M101.923 80.6525C111.482 80.6525 119.231 72.9036 119.231 63.3448C119.231 53.786 111.482 46.0371 101.923 46.0371C92.3642 46.0371 84.6152 53.786 84.6152 63.3448C84.6152 72.9036 92.3642 80.6525 101.923 80.6525Z" fill="#E8FEFF" stroke="#009BA1" stroke-width="2" stroke-linecap="round" stroke-linejoin="round"/>
<path d="M97.5961 70.5559H104.087C105.043 70.5559 105.96 70.176 106.636 69.4998C107.312 68.8236 107.692 67.9064 107.692 66.9501C107.692 65.9938 107.312 65.0767 106.636 64.4005C105.96 63.7242 105.043 63.3444 104.087 63.3444H99.7596C98.8033 63.3444 97.8861 62.9645 97.2099 62.2882C96.5337 61.612 96.1538 60.6949 96.1538 59.7386C96.1538 58.7823 96.5337 57.8651 97.2099 57.1889C97.8861 56.5127 98.8033 56.1328 99.7596 56.1328H106.25" stroke="#009BA1" stroke-width="2" stroke-linecap="round" stroke-linejoin="round"/>
<path d="M101.923 53.248V56.1327" stroke="#009BA1" stroke-width="2" stroke-linecap="round" stroke-linejoin="round"/>
<path d="M101.923 70.5566V73.4413" stroke="#009BA1" stroke-width="2" stroke-linecap="round" stroke-linejoin="round"/>
<path d="M26.9229 92.1935C36.4817 92.1935 44.2306 84.4446 44.2306 74.8858C44.2306 65.327 36.4817 57.5781 26.9229 57.5781C17.3642 57.5781 9.61523 65.327 9.61523 74.8858C9.61523 84.4446 17.3642 92.1935 26.9229 92.1935Z" fill="#E8FEFF" stroke="#009BA1" stroke-width="2" stroke-linecap="round" stroke-linejoin="round"/>
<path d="M22.5961 82.0969H29.0865C30.0428 82.0969 30.96 81.717 31.6362 81.0408C32.3124 80.3646 32.6923 79.4474 32.6923 78.4911C32.6923 77.5348 32.3124 76.6177 31.6362 75.9415C30.96 75.2653 30.0428 74.8854 29.0865 74.8854H24.7596C23.8033 74.8854 22.8861 74.5055 22.2099 73.8293C21.5337 73.153 21.1538 72.2359 21.1538 71.2796C21.1538 70.3233 21.5337 69.4061 22.2099 68.7299C22.8861 68.0537 23.8033 67.6738 24.7596 67.6738H31.25" stroke="#009BA1" stroke-width="2" stroke-linecap="round" stroke-linejoin="round"/>
<path d="M26.9229 64.7891V67.6737" stroke="#009BA1" stroke-width="2" stroke-linecap="round" stroke-linejoin="round"/>
<path d="M26.9229 82.0977V84.9823" stroke="#009BA1" stroke-width="2" stroke-linecap="round" stroke-linejoin="round"/>
<rect x="29.2307" y="101.424" width="16.1538" height="23.0769" fill="#9ED8DA" stroke="#009BA1" stroke-width="2" stroke-linejoin="round"/>
<rect x="52.3077" y="79.5" width="16.1538" height="45" fill="#009BA1" stroke="#009BA1" stroke-width="2" stroke-linecap="round" stroke-linejoin="round"/>
<rect x="75.3846" y="89.8848" width="16.1538" height="34.6154" fill="#9ED8DA" stroke="#009BA1" stroke-width="2" stroke-linejoin="round"/>
<rect x="98.4614" y="101.424" width="16.1538" height="23.0769" fill="white" stroke="#009BA1" stroke-width="2" stroke-linejoin="round"/>
<line x1="37.3076" y1="59.6248" x2="53.2011" y2="43.7314" stroke="#009BA1" stroke-width="2" stroke-linecap="round" stroke-linejoin="round"/>
<line x1="80.2604" y1="41.4238" x2="89.2308" y2="50.3942" stroke="#009BA1" stroke-width="2" stroke-linecap="round" stroke-linejoin="round"/>
</svg>
