<svg width="300" height="90" viewBox="0 0 300 90" fill="none" xmlns="http://www.w3.org/2000/svg">
<path d="M66.093 54.7937L62.6037 51.3255L66.093 47.8615C68.8543 45.1203 68.8543 40.6556 66.093 37.9144L53.8286 25.7392V19.9831C53.8286 18.0116 52.3725 16.331 50.4426 16.0787C49.3269 15.9333 48.2026 16.2711 47.3582 17.0067C46.9317 17.3787 46.5957 17.832 46.3717 18.3324L38.945 10.9896C36.2612 8.33394 31.9146 8.33822 29.2308 10.9939L2.07422 37.9101C-0.6871 40.6513 -0.6871 45.116 2.07422 47.8572L5.57219 51.3297L2.07422 54.7937C-0.691408 57.5392 -0.691408 61.9953 2.07422 64.7408L11.9607 74.5553C13.2186 75.8041 14.8728 76.6123 16.6476 76.715C18.7025 76.839 20.6539 76.0991 22.0971 74.6665L31.9232 64.9375C33.1337 63.7401 35.0938 63.7401 36.3 64.9418L46.0788 74.6665C47.5219 76.0991 49.4734 76.8347 51.5282 76.715C53.303 76.608 54.9572 75.7998 56.2151 74.5553L66.1016 64.7408C68.8543 61.9953 68.8543 57.5349 66.093 54.7937ZM5.09402 44.8594C3.99552 43.7689 3.99552 41.9984 5.09402 40.9079L31.8931 14.2996C33.1036 13.0979 35.0593 13.0979 36.2698 14.2996L63.0689 40.9079C64.1674 41.9984 64.1674 43.7689 63.0689 44.8594L59.5796 48.3234L38.9881 27.8604C36.3043 25.1961 31.9534 25.1918 29.2653 27.8518L8.59198 48.3362L5.09402 44.8594ZM56.5641 51.3169L53.1436 54.7124C52.6396 55.2128 51.9762 55.5506 51.2654 55.5934C50.4469 55.6447 49.6672 55.3496 49.0943 54.7809L38.945 44.7183C36.2612 42.0583 31.9103 42.0583 29.2265 44.7183L19.0773 54.7809C18.5474 55.3069 17.8409 55.5977 17.087 55.5977C16.3332 55.5977 15.6267 55.3069 15.0968 54.7809L11.6118 51.3212L31.9319 31.1618C33.1424 29.9601 35.1024 29.9644 36.3086 31.1661L56.5641 51.3169ZM63.0732 61.743L53.1436 71.6003C52.6396 72.1006 51.9762 72.4385 51.2654 72.4812C50.4469 72.5326 49.6672 72.2375 49.0943 71.6687L38.9407 61.6104C36.2569 58.9504 31.9103 58.9504 29.2265 61.6104L19.073 71.6687C18.5 72.2375 17.7203 72.5326 16.9018 72.4812C16.191 72.4385 15.5276 72.1006 15.0236 71.6003L5.09402 61.743C3.99552 60.6525 3.99552 58.882 5.09402 57.7915L8.58767 54.3233L11.9607 57.6718C13.2186 58.9205 14.8728 59.7288 16.6476 59.8314C18.7025 59.9554 20.6539 59.2156 22.0971 57.783L31.9189 48.0454C33.1294 46.848 35.0895 46.848 36.2957 48.0497L46.0745 57.783C47.5176 59.2156 49.4691 59.9511 51.5239 59.8314C53.2987 59.7245 54.9529 58.9162 56.2108 57.6718L59.5882 54.319L63.0775 57.7915C64.1717 58.882 64.1717 60.6525 63.0732 61.743Z" fill="#E03C31"/>
<path d="M104.045 66.0707H101.538C101.456 66.0707 101.387 66.122 101.361 66.1904C101.361 66.1904 100.358 69.0257 99.845 70.4712C99.5779 71.2238 99.1299 72.4897 98.8843 73.4305C98.8628 73.5075 98.7982 73.5716 98.6991 73.5716C98.6173 73.5716 98.5397 73.5203 98.5182 73.4305C98.264 72.4897 97.7902 71.2238 97.5101 70.4626C96.8726 68.7307 95.9378 66.1904 95.9378 66.1904C95.9119 66.1177 95.843 66.0707 95.7612 66.0707H93.2497C93.1463 66.0707 93.0645 66.1519 93.0645 66.2546C93.0645 66.2802 93.0688 66.3059 93.0774 66.3273L97.2344 76.7106L95.6061 80.7476C95.5975 80.769 95.5932 80.7903 95.5932 80.816C95.5932 80.9186 95.675 80.9999 95.7784 80.9999H98.2123C98.2899 80.9999 98.3588 80.9528 98.3846 80.8844L104.213 66.3187C104.222 66.2973 104.226 66.2759 104.226 66.2503C104.23 66.1519 104.149 66.0707 104.045 66.0707Z" fill="#0E2638"/>
<path d="M84.3928 67.8625C84.3799 67.8882 84.3239 67.9694 84.2205 67.9694C84.1171 67.9694 84.0352 67.8882 84.0352 67.7855C84.0352 67.5974 84.2334 66.199 84.2334 62.6794V61.5932C84.2334 61.4906 84.1516 61.4093 84.0482 61.4093H81.653C81.5496 61.4093 81.4678 61.4906 81.4678 61.5932V76.531C81.4678 76.6336 81.5496 76.7148 81.653 76.7148H83.8543C83.9577 76.7148 84.0395 76.6336 84.0395 76.531V75.0085C84.0395 74.9059 84.1214 74.8246 84.2248 74.8246C84.2851 74.8246 84.354 74.8503 84.3971 74.9358C84.6211 75.3849 85.5688 76.9372 87.8951 76.9372C90.6607 76.9372 92.9223 74.5424 92.9223 71.3949C92.9223 68.2474 90.6607 65.8526 87.8951 65.8526C85.9522 65.8483 84.8451 66.9687 84.3928 67.8625ZM90.1481 71.3906C90.1481 73.0371 88.8342 74.3756 87.2144 74.3756C85.5947 74.3756 84.2808 73.0413 84.2808 71.3906C84.2808 69.7442 85.5947 68.4056 87.2144 68.4056C88.8342 68.4099 90.1481 69.7442 90.1481 71.3906Z" fill="#0E2638"/>
<path d="M202.048 70.6937C201.945 70.6937 201.863 70.6124 201.863 70.5098V68.3031C201.863 68.2005 201.945 68.1192 202.048 68.1192H208.54C208.984 68.1192 209.272 68.4827 209.285 68.8334C209.285 68.8334 209.298 69.2012 209.29 69.5775C209.165 73.9481 206.468 77.0058 202.126 77.0058C197.719 77.0058 194.518 73.5033 194.518 69.1285C194.518 64.7536 197.788 61.1614 202.195 61.1614C205.654 61.1614 207.476 63.321 207.579 63.4108C207.653 63.4792 207.657 63.599 207.588 63.6717L205.938 65.4079C205.869 65.4806 205.749 65.4849 205.675 65.4165C205.585 65.3224 204.331 63.8727 202.195 63.8727C199.321 63.8727 197.34 66.2803 197.34 69.1327C197.34 71.9852 199.339 74.3244 202.147 74.3244C204.387 74.3244 205.99 73.1441 206.378 71.2068C206.39 71.1427 206.395 71.1042 206.395 71.07C206.395 70.8647 206.227 70.6979 206.02 70.6979H202.048V70.6937Z" fill="#0E2638"/>
<path d="M214.657 76.8903C212.56 76.8903 210.983 75.3636 210.983 72.6352V66.259C210.983 66.1563 211.065 66.0751 211.168 66.0751H213.563C213.667 66.0751 213.749 66.1563 213.749 66.259V71.9681C213.749 73.6359 214.494 74.4356 215.859 74.4356C217.165 74.4356 218.065 73.5718 218.065 71.9681V66.259C218.065 66.1563 218.147 66.0751 218.25 66.0751H220.645C220.749 66.0751 220.831 66.1563 220.831 66.259V76.5311C220.831 76.6337 220.749 76.715 220.645 76.715H218.444C218.341 76.715 218.259 76.6337 218.259 76.5311C218.259 76.5311 218.259 75.4363 218.259 74.6366C218.259 74.534 218.177 74.4527 218.074 74.4527C217.97 74.4527 217.91 74.5169 217.88 74.6152C217.626 75.4962 216.816 76.8903 214.657 76.8903Z" fill="#0E2638"/>
<path d="M134.609 65.8055C131.499 65.8055 128.979 68.3073 128.979 71.3949C128.979 74.4825 131.499 76.9843 134.609 76.9843C137.72 76.9843 140.24 74.4825 140.24 71.3949C140.235 68.3073 137.715 65.8055 134.609 65.8055ZM134.609 74.3756C132.99 74.3756 131.676 73.0414 131.676 71.3906C131.676 69.7442 132.99 68.4056 134.609 68.4056C136.229 68.4056 137.543 69.7399 137.543 71.3906C137.539 73.0414 136.225 74.3756 134.609 74.3756Z" fill="#0E2638"/>
<path d="M126.773 68.4486C126.097 68.4486 125.42 68.7779 125.041 69.5605C124.774 70.1036 124.684 70.8648 124.684 71.8784L124.688 76.5269C124.688 76.6295 124.606 76.7108 124.503 76.7108H122.108C122.004 76.7108 121.922 76.6295 121.922 76.5269V66.2548C121.922 66.1522 122.004 66.0709 122.108 66.0709H124.309C124.412 66.0709 124.494 66.1522 124.494 66.2548C124.494 66.2548 124.494 67.3496 124.494 68.1493C124.494 68.2519 124.576 68.3332 124.679 68.3332C124.783 68.3332 124.843 68.2605 124.873 68.1621C125.063 67.5164 125.36 66.7338 125.967 66.2334C126.299 65.9597 126.721 65.8357 127.139 65.8357C127.492 65.8357 127.871 65.9212 128.255 66.165C128.307 66.1992 128.337 66.2548 128.337 66.3189V68.6453C128.337 68.748 128.255 68.8292 128.151 68.8292C128.113 68.8292 128.078 68.8164 128.048 68.7993C127.721 68.624 127.307 68.4486 126.773 68.4486Z" fill="#0E2638"/>
<path d="M172.415 68.4486C171.738 68.4486 171.062 68.7779 170.683 69.5605C170.416 70.1036 170.325 70.8648 170.325 71.8784L170.33 76.5269C170.33 76.6295 170.248 76.7108 170.144 76.7108H167.749C167.646 76.7108 167.564 76.6295 167.564 76.5269V66.2548C167.564 66.1522 167.646 66.0709 167.749 66.0709H169.951C170.054 66.0709 170.136 66.1522 170.136 66.2548C170.136 66.2548 170.136 67.3496 170.136 68.1493C170.136 68.2519 170.218 68.3332 170.321 68.3332C170.424 68.3332 170.485 68.2605 170.515 68.1621C170.704 67.5164 171.002 66.7338 171.609 66.2334C171.941 65.9597 172.363 65.8357 172.781 65.8357C173.134 65.8357 173.513 65.9212 173.896 66.165C173.948 66.1992 173.978 66.2548 173.978 66.3189V68.6453C173.978 68.748 173.896 68.8292 173.793 68.8292C173.754 68.8292 173.72 68.8164 173.69 68.7993C173.362 68.624 172.949 68.4486 172.415 68.4486Z" fill="#0E2638"/>
<path d="M228.081 68.4486C227.404 68.4486 226.728 68.7779 226.349 69.5605C226.082 70.1036 225.991 70.8648 225.991 71.8784L225.996 76.5269C225.996 76.6295 225.914 76.7108 225.81 76.7108H223.415C223.312 76.7108 223.23 76.6295 223.23 76.5269V66.2548C223.23 66.1522 223.312 66.0709 223.415 66.0709H225.617C225.72 66.0709 225.802 66.1522 225.802 66.2548C225.802 66.2548 225.802 67.3496 225.802 68.1493C225.802 68.2519 225.884 68.3332 225.987 68.3332C226.09 68.3332 226.151 68.2605 226.181 68.1621C226.37 67.5164 226.668 66.7338 227.275 66.2334C227.607 65.9597 228.029 65.8357 228.447 65.8357C228.8 65.8357 229.179 65.9212 229.563 66.165C229.614 66.1992 229.644 66.2548 229.644 66.3189V68.6453C229.644 68.748 229.563 68.8292 229.459 68.8292C229.42 68.8292 229.386 68.8164 229.356 68.7993C229.033 68.624 228.619 68.4486 228.081 68.4486Z" fill="#0E2638"/>
<path d="M234.805 76.8903C232.708 76.8903 231.131 75.3636 231.131 72.6352V66.259C231.131 66.1563 231.213 66.0751 231.316 66.0751H233.711C233.815 66.0751 233.897 66.1563 233.897 66.259V71.9681C233.897 73.6359 234.642 74.4356 236.007 74.4356C237.313 74.4356 238.213 73.5718 238.213 71.9681V66.259C238.213 66.1563 238.295 66.0751 238.398 66.0751H240.793C240.897 66.0751 240.979 66.1563 240.979 66.259V76.5311C240.979 76.6337 240.897 76.715 240.793 76.715H238.592C238.489 76.715 238.407 76.6337 238.407 76.5311C238.407 76.5311 238.407 75.4363 238.407 74.6366C238.407 74.534 238.325 74.4527 238.222 74.4527C238.118 74.4527 238.058 74.5169 238.028 74.6152C237.778 75.4962 236.964 76.8903 234.805 76.8903Z" fill="#0E2638"/>
<path d="M192.877 66.0707H190.37C190.288 66.0707 190.219 66.122 190.193 66.1904C190.193 66.1904 189.19 69.0257 188.677 70.4712C188.41 71.2238 187.962 72.4897 187.716 73.4305C187.695 73.5075 187.63 73.5716 187.531 73.5716C187.449 73.5716 187.372 73.5203 187.35 73.4305C187.096 72.4897 186.622 71.2238 186.342 70.4626C185.705 68.7307 184.77 66.1904 184.77 66.1904C184.744 66.1177 184.675 66.0707 184.593 66.0707H182.082C181.978 66.0707 181.896 66.1519 181.896 66.2546C181.896 66.2802 181.901 66.3059 181.909 66.3273L186.066 76.7106L184.438 80.7476C184.429 80.769 184.425 80.7903 184.425 80.816C184.425 80.9186 184.507 80.9999 184.61 80.9999H187.044C187.122 80.9999 187.191 80.9528 187.217 80.8844L193.045 66.3187C193.054 66.2973 193.058 66.2759 193.058 66.2503C193.062 66.1519 192.981 66.0707 192.877 66.0707Z" fill="#0E2638"/>
<path d="M114.737 61.4052H109.951C109.538 61.4052 109.202 61.7387 109.202 62.1493V76.5268C109.202 76.6294 109.284 76.7107 109.387 76.7107H111.782C111.885 76.7107 111.967 76.6294 111.967 76.5268V72.9517C111.967 72.7464 112.135 72.5796 112.342 72.5796H114.733C117.938 72.5796 120.458 70.0779 120.458 66.9902C120.462 63.9069 117.942 61.4052 114.737 61.4052ZM114.496 70.0736H112.346C112.14 70.0736 111.972 69.9068 111.972 69.7015V64.2875C111.972 64.0822 112.14 63.9154 112.346 63.9154H114.496C116.305 63.9154 117.692 65.2925 117.692 66.9945C117.692 68.6923 116.305 70.0736 114.496 70.0736Z" fill="#0E2638"/>
<path d="M178.23 68.6154C178.23 68.5128 178.312 68.4315 178.416 68.4315H180.634C180.738 68.4315 180.819 68.3503 180.819 68.2476V66.2633C180.819 66.1607 180.738 66.0795 180.634 66.0795H178.157C178.054 66.0795 177.972 65.9982 177.972 65.8956V63.4238C177.972 63.3211 177.89 63.2399 177.787 63.2399H175.646C175.542 63.2399 175.46 63.3211 175.46 63.4238V73.4949C175.46 76.0907 176.731 76.9888 178.394 76.9888C179.45 76.9888 180.078 76.668 180.337 76.544C180.419 76.5055 180.458 76.4414 180.458 76.3516L180.453 74.7393C180.453 74.611 180.337 74.5084 180.182 74.5683C179.846 74.6923 179.557 74.7736 179.217 74.7736C178.721 74.7736 178.235 74.5426 178.235 73.636V68.6154H178.23Z" fill="#0E2638"/>
<path d="M148.373 76.933C151.138 76.933 153.4 74.5382 153.4 71.3907C153.4 68.2432 151.138 65.8484 148.373 65.8484C146.046 65.8484 145.099 67.4008 144.875 67.8498C144.832 67.9353 144.758 67.961 144.702 67.961C144.599 67.961 144.517 67.8797 144.517 67.7771V66.2547C144.517 66.152 144.435 66.0708 144.332 66.0708H142.131C142.027 66.0708 141.945 66.152 141.945 66.2547V80.8161C141.945 80.9187 142.027 81 142.131 81H144.526C144.629 81 144.711 80.9187 144.711 80.8161V80.1019C144.711 76.5824 144.513 75.184 144.513 74.9958C144.513 74.8932 144.595 74.8119 144.698 74.8119C144.801 74.8119 144.853 74.8889 144.87 74.9188C145.323 75.8169 146.43 76.933 148.373 76.933ZM147.692 74.3757C146.072 74.3757 144.758 73.0414 144.758 71.3907C144.758 69.7443 146.072 68.4057 147.692 68.4057C149.312 68.4057 150.626 69.74 150.626 71.3907C150.626 73.0414 149.312 74.3757 147.692 74.3757Z" fill="#0E2638"/>
<path d="M160.331 65.8055C157.221 65.8055 154.934 68.3073 154.934 71.3949C154.934 74.4825 157.307 76.9843 160.538 76.9843C162.287 76.9843 163.627 76.377 164.519 75.6671C164.596 75.603 164.613 75.4918 164.557 75.4105L163.562 74.0463C163.502 73.9651 163.386 73.9437 163.299 74.0036C162.86 74.2901 162.214 74.7947 160.749 74.7947C159.513 74.7947 158.414 74.0805 157.893 72.9473C157.841 72.8404 157.772 72.6821 157.772 72.6137C157.772 72.5111 157.854 72.4298 157.958 72.4298C157.958 72.4298 164.398 72.4298 164.846 72.4298C165.147 72.4298 165.583 72.2245 165.608 71.7028C165.781 68.4099 163.933 65.8055 160.331 65.8055ZM162.705 70.5311H157.872C157.768 70.5311 157.686 70.4498 157.686 70.3472C157.686 70.3001 157.729 70.1419 157.772 70.0179C158.164 68.8076 159.151 68.0977 160.473 68.0977C161.589 68.0977 162.421 68.6494 162.856 69.4961C162.981 69.7399 163.084 70.0521 163.084 70.159C163.08 70.3643 162.912 70.5311 162.705 70.5311Z" fill="#0E2638"/>
<path d="M232.737 15.8606C232.737 18.9354 235.257 21.4329 238.368 21.4329C240.504 21.4329 241.831 20.3124 242.516 19.5426C242.581 19.4699 242.581 19.3545 242.512 19.2861L241.047 17.8663C240.978 17.7978 240.858 17.7936 240.78 17.8663C240.371 18.2554 239.63 18.8328 238.363 18.8328C236.744 18.8328 235.434 17.5028 235.434 15.8606C235.434 14.2184 236.748 12.8884 238.363 12.8884C239.63 12.8884 240.371 13.47 240.78 13.8549C240.858 13.9276 240.978 13.9233 241.047 13.8549L242.507 12.4351C242.581 12.3667 242.581 12.2512 242.512 12.1785C241.827 11.413 240.496 10.2883 238.363 10.2883C235.257 10.2883 232.737 12.7858 232.737 15.8606Z" fill="#E03C31"/>
<path d="M266.166 12.8114C266.257 12.8114 266.33 12.7472 266.36 12.6489C266.619 11.7679 267.497 10.3781 269.707 10.3781C271.805 10.3781 273.477 11.9005 273.477 14.6203V20.9752C273.477 21.0778 273.395 21.1591 273.291 21.1591H270.896C270.793 21.1591 270.711 21.0778 270.711 20.9752V15.2875C270.711 13.6282 269.918 12.8285 268.587 12.8285C267.299 12.8285 266.395 13.6881 266.395 15.2875V20.9795C266.395 21.0821 266.313 21.1634 266.209 21.1634H263.814C263.711 21.1634 263.629 21.0821 263.629 20.9795V15.2875C263.629 13.6282 262.836 12.8285 261.505 12.8285C260.217 12.8285 259.313 13.6881 259.313 15.2875V20.9795C259.313 21.0821 259.231 21.1634 259.127 21.1634H256.732C256.629 21.1634 256.547 21.0821 256.547 20.9795V10.7373C256.547 10.6346 256.629 10.5534 256.732 10.5534H258.933C259.037 10.5534 259.119 10.6346 259.119 10.7373C259.119 10.7373 259.119 11.8278 259.119 12.6275C259.119 12.7301 259.201 12.8114 259.304 12.8114C259.407 12.8114 259.468 12.7472 259.498 12.6489C259.756 11.7679 260.626 10.3781 262.694 10.3781C264.215 10.3781 265.447 11.1949 266.007 12.6959C266.02 12.7772 266.106 12.8114 266.166 12.8114Z" fill="#E03C31"/>
<path d="M249.193 10.2883C246.083 10.2883 243.563 12.7815 243.563 15.8606C243.563 18.9354 246.083 21.4329 249.193 21.4329C252.304 21.4329 254.824 18.9397 254.824 15.8606C254.824 12.7858 252.304 10.2883 249.193 10.2883ZM249.193 18.8328C247.574 18.8328 246.264 17.5028 246.264 15.8606C246.264 14.2184 247.578 12.8884 249.193 12.8884C250.809 12.8884 252.123 14.2184 252.123 15.8606C252.127 17.5028 250.813 18.8328 249.193 18.8328Z" fill="#E03C31"/>
<path d="M229.834 21.4328C230.783 21.4328 231.553 20.6707 231.553 19.7307C231.553 18.7907 230.783 18.0287 229.834 18.0287C228.885 18.0287 228.115 18.7907 228.115 19.7307C228.115 20.6707 228.885 21.4328 229.834 21.4328Z" fill="#E03C31"/>
<path d="M277.306 21.4328C278.256 21.4328 279.025 20.6707 279.025 19.7307C279.025 18.7907 278.256 18.0287 277.306 18.0287C276.357 18.0287 275.587 18.7907 275.587 19.7307C275.587 20.6707 276.357 21.4328 277.306 21.4328Z" fill="#E03C31"/>
<path d="M283.29 18.033C283.195 18.033 283.126 17.9689 283.105 17.8919C282.859 16.9554 282.411 15.6938 282.144 14.9411C281.632 13.5042 280.628 10.6732 280.628 10.6732C280.602 10.6005 280.533 10.5535 280.451 10.5535H277.944C277.841 10.5535 277.759 10.6347 277.759 10.7374C277.759 10.763 277.763 10.7844 277.772 10.8058L281.881 21.048C281.912 21.1164 281.976 21.1592 282.054 21.1592H284.522C284.6 21.1592 284.664 21.1121 284.694 21.048L288.804 10.8058C288.813 10.7844 288.817 10.763 288.817 10.7374C288.817 10.6347 288.735 10.5535 288.632 10.5535H286.125C286.043 10.5535 285.974 10.6048 285.948 10.6732C285.948 10.6732 284.944 13.5 284.432 14.9411C284.165 15.6895 283.717 16.9511 283.471 17.8919C283.454 17.9646 283.385 18.033 283.29 18.033Z" fill="#E03C31"/>
<path d="M296.321 10.3781C298.419 10.3781 299.996 11.9005 299.996 14.6203V20.9752C299.996 21.0778 299.914 21.1591 299.81 21.1591H297.415C297.312 21.1591 297.23 21.0778 297.23 20.9752V15.2875C297.23 13.6282 296.485 12.8285 295.119 12.8285C293.814 12.8285 292.914 13.6881 292.914 15.2875V20.9795C292.914 21.0821 292.832 21.1634 292.728 21.1634H290.333C290.23 21.1634 290.148 21.0821 290.148 20.9795V10.7373C290.148 10.6346 290.23 10.5534 290.333 10.5534H292.535C292.638 10.5534 292.72 10.6346 292.72 10.7373C292.72 10.7373 292.72 11.8278 292.72 12.6275C292.72 12.7301 292.802 12.8114 292.905 12.8114C293.008 12.8114 293.069 12.7472 293.099 12.6489C293.353 11.7679 294.163 10.3781 296.321 10.3781Z" fill="#E03C31"/>
<path d="M98.1132 34.9293C99.9095 33.5053 101.068 31.3585 101.068 28.9209C101.068 24.6358 97.5704 21.1633 93.1204 21.1633H82.8505C82.0837 21.1633 81.4634 21.7791 81.4634 22.5404V48.1223C81.4634 48.8835 82.0837 49.4993 82.8505 49.4993H94.3567C98.8024 49.4993 102.305 46.0268 102.305 41.7418C102.3 38.7782 100.612 36.2379 98.1132 34.9293ZM86.5897 26.5004C86.5897 26.1198 86.8999 25.8119 87.2833 25.8119H92.0951C94.2706 25.8119 95.9377 27.4711 95.9377 29.5153C95.9377 31.5595 94.2663 33.2187 92.0951 33.2187H87.2833C86.8999 33.2187 86.5897 32.9108 86.5897 32.5302V26.5004ZM93.3315 44.8508H87.2833C86.8999 44.8508 86.5897 44.5429 86.5897 44.1623V38.1324C86.5897 37.7518 86.8999 37.4439 87.2833 37.4439H93.3315C95.5069 37.4439 97.1741 39.1032 97.1741 41.1474C97.1741 43.1915 95.5026 44.8508 93.3315 44.8508Z" fill="#E03C31"/>
<path d="M135.945 34.5061C135.945 34.3179 136.1 34.164 136.289 34.164H140.399C140.589 34.164 140.744 34.01 140.744 33.8218V30.1483C140.744 29.9602 140.589 29.8062 140.399 29.8062H135.815C135.626 29.8062 135.471 29.6523 135.471 29.4641V24.8797C135.471 24.6916 135.316 24.5376 135.126 24.5376H131.163C130.973 24.5376 130.818 24.6916 130.818 24.8797V43.5209C130.818 48.3277 133.175 49.9912 136.246 49.9912C138.198 49.9912 139.361 49.4011 139.843 49.1702C139.994 49.0975 140.067 48.9777 140.067 48.8109L140.059 45.8259C140.059 45.5907 139.839 45.4026 139.555 45.5095C138.93 45.7404 138.404 45.8901 137.767 45.8901C136.849 45.8901 135.945 45.4624 135.945 43.7818V34.5061Z" fill="#E03C31"/>
<path d="M126.049 29.7976H121.978C121.789 29.7976 121.629 29.9516 121.629 30.144V32.9622C121.629 33.1504 121.474 33.3086 121.281 33.3086C121.173 33.3086 121.039 33.2616 120.957 33.0991C120.544 32.2694 118.791 29.3956 114.487 29.3956C109.374 29.3956 105.182 33.8261 105.182 39.6549C105.182 45.4838 109.374 49.9142 114.487 49.9142C118.791 49.9142 120.548 47.0404 120.957 46.2108C121.039 46.0483 121.173 46.0055 121.281 46.0055C121.47 46.0055 121.629 46.1595 121.629 46.3476V49.1658C121.629 49.354 121.785 49.5079 121.978 49.5079H126.049C126.239 49.5079 126.398 49.354 126.398 49.1615V30.1397C126.394 29.9516 126.239 29.7976 126.049 29.7976ZM115.745 45.1716C112.747 45.1716 110.317 42.6998 110.317 39.6506C110.317 36.6015 112.747 34.1297 115.745 34.1297C118.743 34.1297 121.173 36.6015 121.173 39.6506C121.173 42.6998 118.743 45.1716 115.745 45.1716Z" fill="#E03C31"/>
<path d="M158.703 33.1118C157.867 31.4526 155.812 29.3827 152.219 29.3827C147.106 29.3827 142.915 33.8132 142.915 39.642C142.915 45.4666 147.106 49.9013 152.219 49.9013C156.523 49.9013 158.281 47.0275 158.69 46.1979C158.772 46.0354 158.905 45.9926 159.013 45.9926C159.202 45.9926 159.358 46.1466 159.358 46.3347V49.1529C159.358 49.3411 159.513 49.495 159.702 49.495H163.773C163.963 49.495 164.118 49.3411 164.118 49.1529V21.5097C164.118 21.3216 163.963 21.1676 163.773 21.1676H159.336C159.146 21.1676 158.991 21.3216 158.991 21.5097V22.8312C158.991 29.5581 159.366 32.6243 159.362 32.9707C159.358 33.1546 159.215 33.3128 159.009 33.3128C158.961 33.3085 158.785 33.2786 158.703 33.1118ZM153.473 34.1211C156.471 34.1211 158.901 36.5929 158.901 39.642C158.901 42.6912 156.471 45.163 153.473 45.163C150.475 45.163 148.045 42.6912 148.045 39.642C148.049 36.5929 150.479 34.1211 153.473 34.1211Z" fill="#E03C31"/>
<path d="M202.664 29.4684C206.55 29.4684 209.466 32.2951 209.466 37.3457V49.1445C209.466 49.3327 209.311 49.4866 209.122 49.4866H204.689C204.5 49.4866 204.344 49.3327 204.344 49.1445V38.5773C204.344 35.494 202.966 34.01 200.433 34.01C198.016 34.01 196.349 35.6051 196.349 38.5773V49.1445C196.349 49.3327 196.194 49.4866 196.004 49.4866H191.572C191.382 49.4866 191.227 49.3327 191.227 49.1445V30.1398C191.227 29.9516 191.382 29.7977 191.572 29.7977L195.643 29.7934C195.832 29.7934 195.987 29.9474 195.987 30.1355C195.987 30.1355 195.987 32.1583 195.987 33.6422C195.987 33.8304 196.142 33.9844 196.332 33.9844C196.521 33.9844 196.638 33.8646 196.689 33.685C197.168 32.0471 198.671 29.4684 202.664 29.4684Z" fill="#E03C31"/>
<path d="M229.067 47.5065C229.067 51.8344 226.426 54.1052 222.506 54.1052C219.607 54.1052 217.897 52.942 217.22 52.54C217.048 52.4373 216.837 52.5015 216.742 52.6512L214.713 55.8243C214.614 55.9825 214.662 56.1835 214.812 56.2905C216.032 57.15 218.853 58.5741 222.786 58.5741C228.494 58.5741 233.84 55.2898 233.84 47.3184V30.1397C233.84 29.9516 233.685 29.7976 233.491 29.7976H229.42C229.231 29.7976 229.071 29.9516 229.071 30.144V32.9622C229.071 33.1504 228.916 33.3086 228.722 33.3086C228.615 33.3086 228.481 33.2616 228.399 33.0991C227.986 32.2694 226.232 29.3956 221.929 29.3956C216.816 29.3956 212.624 33.8261 212.624 39.6549C212.624 45.4838 216.816 49.4524 221.929 49.4524C225.875 49.4524 227.99 47.0361 228.399 46.2108C228.481 46.0483 228.615 46.0055 228.722 46.0055C228.912 46.0055 229.071 46.1595 229.071 46.3476V47.5065H229.067ZM223.183 45.1716C220.184 45.1716 217.755 42.6998 217.755 39.6506C217.755 36.6015 220.184 34.1297 223.183 34.1297C226.181 34.1297 228.61 36.6015 228.61 39.6506C228.61 42.6998 226.176 45.1716 223.183 45.1716Z" fill="#E03C31"/>
<path d="M293.194 29.4684C297.079 29.4684 300 32.2951 300 37.3457V49.1445C300 49.3327 299.845 49.4866 299.655 49.4866H295.223C295.033 49.4866 294.878 49.3327 294.878 49.1445V38.5773C294.878 35.494 293.5 34.01 290.967 34.01C288.55 34.01 286.883 35.6051 286.883 38.5773V49.1445C286.883 49.3327 286.728 49.4866 286.538 49.4866H282.105C281.916 49.4866 281.761 49.3327 281.761 49.1445V30.1398C281.761 29.9516 281.916 29.7977 282.105 29.7977L286.176 29.7934C286.366 29.7934 286.521 29.9474 286.521 30.1355C286.521 30.1355 286.521 32.1583 286.521 33.6422C286.521 33.8304 286.676 33.9844 286.866 33.9844C287.055 33.9844 287.171 33.8646 287.223 33.685C287.697 32.0471 289.2 29.4684 293.194 29.4684Z" fill="#E03C31"/>
<path d="M276.979 29.7976H272.908C272.719 29.7976 272.559 29.9516 272.559 30.144V32.9622C272.559 33.1504 272.404 33.3086 272.21 33.3086C272.103 33.3086 271.969 33.2616 271.887 33.1033C271.474 32.2737 269.72 29.3999 265.417 29.3999C260.303 29.3999 256.112 33.8303 256.112 39.6592C256.112 45.4838 260.303 49.9185 265.417 49.9185C269.72 49.9185 271.478 47.0447 271.887 46.215C271.969 46.0525 272.103 46.0098 272.21 46.0098C272.4 46.0098 272.559 46.1637 272.559 46.3562V49.1744C272.559 49.3625 272.714 49.5165 272.908 49.5165H276.979C277.169 49.5165 277.328 49.3625 277.328 49.1701V30.1397C277.328 29.9516 277.173 29.7976 276.979 29.7976ZM266.675 45.1716C263.676 45.1716 261.247 42.6998 261.247 39.6506C261.247 36.6015 263.676 34.1297 266.675 34.1297C269.673 34.1297 272.103 36.6015 272.103 39.6506C272.103 42.6998 269.673 45.1716 266.675 45.1716Z" fill="#E03C31"/>
<path d="M246.704 37.6577C244.765 37.2814 242.62 36.9906 242.62 35.0918C242.62 33.7875 243.994 32.9408 245.885 32.9408C247.858 32.9408 249.534 33.98 250.426 34.7797C250.559 34.8994 250.818 34.8481 250.908 34.6984L252.834 31.6022C252.907 31.4611 252.911 31.2772 252.765 31.1532C251.054 29.7078 248.241 28.9423 245.652 28.9423C240.225 28.9423 237.493 32.124 237.493 35.2501C237.493 39.0433 240.5 40.4888 243.766 41.1944C246.139 41.7076 248.582 42.1908 248.582 43.8715C248.582 45.1117 247.41 46.1081 244.937 46.1081C242.654 46.1081 240.505 44.761 239.557 44.0767C239.385 43.9527 239.186 43.9827 239.061 44.1409L237.011 47.344C236.938 47.4723 236.946 47.6519 237.084 47.7759C238.398 48.969 241.491 50.3546 245.101 50.3546C250.365 50.3546 253.725 47.4637 253.725 43.8544C253.717 39.5736 249.986 38.2949 246.704 37.6577Z" fill="#E03C31"/>
<path d="M177.666 29.3058C171.911 29.3058 167.245 33.9372 167.245 39.6506C167.245 45.364 171.911 49.9954 177.666 49.9954C183.421 49.9954 188.086 45.364 188.086 39.6506C188.086 33.9372 183.421 29.3058 177.666 29.3058ZM177.666 45.1716C174.668 45.1716 172.238 42.6997 172.238 39.6506C172.238 36.6015 174.668 34.1297 177.666 34.1297C180.664 34.1297 183.094 36.6015 183.094 39.6506C183.094 42.6997 180.664 45.1716 177.666 45.1716Z" fill="#E03C31"/>
</svg>
