<svg width="130" height="130" viewBox="0 0 130 130" fill="none" xmlns="http://www.w3.org/2000/svg">
<g clip-path="url(#clip0_39497_26605)">
<path d="M118.42 75.84C118.43 83.2392 116.894 90.5589 113.91 97.33H16.09C12.8944 90.0546 11.3621 82.1579 11.6049 74.2154C11.8476 66.2728 13.8593 58.4844 17.4932 51.4177C21.1271 44.3511 26.2917 38.1841 32.6108 33.3662C38.9299 28.5483 46.2443 25.2008 54.0209 23.5676C61.7975 21.9345 69.8405 22.0568 77.5639 23.9257C85.2873 25.7946 92.4964 29.363 98.6661 34.3709C104.836 39.3787 109.81 45.6999 113.228 52.8739C116.645 60.0478 118.419 67.8937 118.42 75.84Z" fill="#F2F2F2"/>
<path d="M4.57996 97.3301H125.42" stroke="#63666A" stroke-width="1.5" stroke-miterlimit="10" stroke-linecap="round"/>
<path d="M26.55 62H35.8601C36.1253 62 36.3796 62.1054 36.5672 62.2929C36.7547 62.4804 36.8601 62.7348 36.8601 63V97.33H25.55V63C25.55 62.7348 25.6554 62.4804 25.8429 62.2929C26.0305 62.1054 26.2848 62 26.55 62Z" fill="#A7A7A7" stroke="#63666A" stroke-width="1.5" stroke-miterlimit="10"/>
<path d="M46.42 38.6799H55.73C55.9953 38.6799 56.2496 38.7853 56.4372 38.9728C56.6247 39.1604 56.73 39.4147 56.73 39.6799V97.3299H45.42V39.6799C45.42 39.4147 45.5254 39.1604 45.7129 38.9728C45.9005 38.7853 46.1548 38.6799 46.42 38.6799Z" fill="#D7D7D7" stroke="#63666A" stroke-width="1.5" stroke-miterlimit="10"/>
<path d="M66.3 45.6599H75.61C75.8753 45.6599 76.1296 45.7653 76.3172 45.9528C76.5047 46.1403 76.61 46.3947 76.61 46.6599V97.3299H65.3V46.6599C65.3 46.3947 65.4054 46.1403 65.5929 45.9528C65.7805 45.7653 66.0348 45.6599 66.3 45.6599Z" fill="#A7A7A7" stroke="#63666A" stroke-width="1.5" stroke-miterlimit="10"/>
<path d="M86.17 26.6001H95.48C95.7453 26.6001 95.9996 26.7055 96.1871 26.893C96.3747 27.0805 96.48 27.3349 96.48 27.6001V97.3301H85.17V27.6001C85.17 27.3349 85.2754 27.0805 85.4629 26.893C85.6505 26.7055 85.9048 26.6001 86.17 26.6001Z" fill="#D7D7D7" stroke="#63666A" stroke-width="1.5" stroke-miterlimit="10"/>
</g>
<defs>
<clipPath id="clip0_39497_26605">
<rect width="130" height="130" fill="white"/>
</clipPath>
</defs>
</svg>
