<svg width="58" height="58" viewBox="0 0 58 58" fill="none" xmlns="http://www.w3.org/2000/svg">
<path fill-rule="evenodd" clip-rule="evenodd" d="M0.20874 5.66732C0.20874 2.65276 2.65252 0.208984 5.66707 0.208984H52.3337C55.3483 0.208984 57.7921 2.65276 57.7921 5.66732V52.334C57.7921 55.3485 55.3483 57.7923 52.3337 57.7923H5.66707C2.65252 57.7923 0.20874 55.3485 0.20874 52.334V5.66732ZM5.66707 4.45898C4.99973 4.45898 4.45874 4.99997 4.45874 5.66732V43.8704L12.7838 35.5454C16.2171 32.1121 21.7837 32.1121 25.2171 35.5454L25.789 36.1173C27.5626 37.891 30.4382 37.891 32.2118 36.1173L39.4504 28.8788C42.8838 25.4454 48.4504 25.4454 51.8837 28.8788L53.5421 30.5371V5.66732C53.5421 4.99997 53.0011 4.45898 52.3337 4.45898H5.66707ZM53.5421 36.5475L48.8785 31.884C47.1049 30.1103 44.2293 30.1103 42.4556 31.884L35.2171 39.1225C31.7837 42.5559 26.2171 42.5559 22.7838 39.1225L22.2118 38.5506C20.4382 36.777 17.5626 36.777 15.789 38.5506L4.45874 49.8809V52.334C4.45874 53.0013 4.99973 53.5423 5.66707 53.5423H52.3337C53.0011 53.5423 53.5421 53.0013 53.5421 52.334V36.5475ZM18.4837 14.459C16.2648 14.459 14.4587 16.2635 14.4587 18.4873C14.4587 20.7111 16.2648 22.5157 18.4837 22.5157C20.7068 22.5157 22.5121 20.7104 22.5121 18.4873C22.5121 16.2643 20.7068 14.459 18.4837 14.459ZM10.2087 18.4873C10.2087 13.9178 13.9161 10.209 18.4837 10.209C23.054 10.209 26.7621 13.917 26.7621 18.4873C26.7621 23.0576 23.054 26.7657 18.4837 26.7657C13.9161 26.7657 10.2087 23.0568 10.2087 18.4873Z" fill="#CCCCCC"/>
</svg>
