<svg width="24" height="24" viewBox="0 0 24 24" fill="none" xmlns="http://www.w3.org/2000/svg">
<path fill-rule="evenodd" clip-rule="evenodd" d="M4 5.5H20C20.2761 5.5 20.5 5.72386 20.5 6V18C20.5 18.2761 20.2761 18.5 20 18.5H4C3.72386 18.5 3.5 18.2761 3.5 18V6C3.5 5.72386 3.72386 5.5 4 5.5ZM2 6C2 4.89543 2.89543 4 4 4H20C21.1046 4 22 4.89543 22 6V18C22 19.1046 21.1046 20 20 20H4C2.89543 20 2 19.1046 2 18V6ZM5.20534 16.2417C5.32142 16.3269 5.47232 16.3694 5.65805 16.3694C5.85926 16.3694 6.01403 16.3191 6.12237 16.2185C6.23072 16.1179 6.33519 15.9554 6.43579 15.731L7.00651 14.3844H10.9985L11.5782 15.731C11.671 15.9477 11.7755 16.1102 11.8916 16.2185C12.0154 16.3191 12.1857 16.3694 12.4023 16.3694C12.5803 16.3694 12.7235 16.3307 12.8318 16.2533C12.9402 16.1682 13.006 16.0521 13.0292 15.9051C13.0524 15.7581 13.0214 15.5955 12.9363 15.4176L9.86017 8.62684C9.75957 8.40241 9.63575 8.24377 9.48871 8.15091C9.34942 8.0503 9.19077 8 9.01278 8C8.82705 8 8.66067 8.0503 8.51364 8.15091C8.37434 8.24377 8.25439 8.40241 8.15379 8.62684L5.08926 15.4176C5.01187 15.5955 4.98478 15.7581 5.008 15.9051C5.03122 16.0444 5.097 16.1566 5.20534 16.2417ZM7.52061 13.2004L8.98957 9.70639H9.01278L10.4922 13.2004H7.52061ZM14.4148 16.0328C14.794 16.2727 15.2312 16.3926 15.7265 16.3926C16.2063 16.3926 16.6242 16.2727 16.9802 16.0328C17.2352 15.8609 17.4287 15.6473 17.5606 15.3921V15.6265C17.5606 15.8664 17.6225 16.0521 17.7463 16.1837C17.8701 16.3075 18.0481 16.3694 18.2803 16.3694C18.5124 16.3694 18.6904 16.3075 18.8142 16.1837C18.9381 16.0521 19 15.8664 19 15.6265V8.73131C19 8.49141 18.9342 8.30955 18.8026 8.18573C18.6788 8.06191 18.5008 8 18.2687 8C18.0365 8 17.8585 8.06191 17.7347 8.18573C17.6109 8.30955 17.549 8.49141 17.549 8.73131V11.4547C17.4129 11.2085 17.2155 11.001 16.9569 10.8324C16.6087 10.6002 16.1986 10.4841 15.7265 10.4841C15.2312 10.4841 14.794 10.6041 14.4148 10.844C14.0433 11.0839 13.7531 11.4244 13.5442 11.8655C13.3352 12.2989 13.2308 12.8212 13.2308 13.4326C13.2308 14.0362 13.3352 14.5624 13.5442 15.0113C13.7531 15.4524 14.0433 15.7929 14.4148 16.0328ZM16.8873 15.0809C16.6706 15.2202 16.4191 15.2899 16.1328 15.2899C15.6994 15.2899 15.3512 15.1351 15.088 14.8255C14.8249 14.5083 14.6934 14.0439 14.6934 13.4326C14.6934 13.0224 14.7514 12.6819 14.8675 12.4111C14.9913 12.1325 15.1616 11.9274 15.3782 11.7958C15.5949 11.6565 15.8464 11.5869 16.1328 11.5869C16.5661 11.5869 16.9144 11.7417 17.1775 12.0512C17.4406 12.353 17.5722 12.8135 17.5722 13.4326C17.5722 13.8427 17.5103 14.1871 17.3864 14.4657C17.2704 14.7365 17.104 14.9416 16.8873 15.0809Z" fill="#2C2C2C"/>
</svg>
