<svg width="24" height="24" viewBox="0 0 24 24" fill="none" xmlns="http://www.w3.org/2000/svg">
<path fill-rule="evenodd" clip-rule="evenodd" d="M17.4452 4.16886C17.1806 3.97366 16.8196 3.97366 16.5549 4.16886L12.2853 7.31771L9.59064 5.57881C9.34307 5.41904 9.02489 5.41904 8.77732 5.57881L1.59334 10.2147C1.3793 10.3528 1.25 10.5902 1.25 10.8449V20.1167C1.25 20.5309 1.58579 20.8667 2 20.8667H16.368C16.3782 20.8667 16.3884 20.8665 16.3986 20.8661H22C22.4142 20.8661 22.75 20.5303 22.75 20.1161V8.45996C22.75 8.22177 22.6368 7.99774 22.4451 7.85636L17.4452 4.16886ZM15.618 19.3661H12.4168V15.6177C12.4168 15.2035 12.081 14.8677 11.6668 14.8677H6.66675C6.25253 14.8677 5.91675 15.2035 5.91675 15.6177V19.3667H2.75V11.2535L9.18398 7.10159L15.618 11.2535V19.3661ZM17.118 19.3661H21.25V8.83873L17.0001 5.70437L13.6331 8.18748L16.7746 10.2147C16.9887 10.3528 17.118 10.5902 17.118 10.8449V19.3661ZM10.9168 19.3667H7.41675V16.3677H10.9168V19.3667Z" fill="#2C2C2C"/>
</svg>
