<svg width="24" height="24" viewBox="0 0 24 24" fill="none" xmlns="http://www.w3.org/2000/svg">
<path fill-rule="evenodd" clip-rule="evenodd" d="M2.48187 3.61417V20.4956H4.55122V17.4194C4.55122 16.9401 4.93398 16.5515 5.40614 16.5515H9.32124C9.7934 16.5515 10.1762 16.9401 10.1762 17.4194V20.4956H12.8374V5.29142L2.48187 3.61417ZM14.3193 20.4956H21.5181V14.2031L14.3193 12.6131V20.4956ZM14.3193 11.0736V4.74845C14.3193 4.32191 14.0139 3.95859 13.599 3.89138L1.98962 2.01104C1.47029 1.92692 1 2.33423 1 2.86811V22H23V13.6902C23 13.282 22.7198 12.929 22.3268 12.8422L14.3193 11.0736ZM8.6943 20.4956V18.0559H6.03308V20.4956H8.6943Z" fill="#2C2C2C"/>
<path d="M4.80005 7.4C4.80005 7.17909 4.97913 7 5.20005 7H6.40005C6.62096 7 6.80005 7.17909 6.80005 7.4V8.6C6.80005 8.82091 6.62096 9 6.40005 9H5.20005C4.97913 9 4.80005 8.82091 4.80005 8.6V7.4Z" fill="#2C2C2C"/>
<path d="M7.80005 10.4C7.80005 10.1791 7.97914 10 8.20005 10H9.40005C9.62096 10 9.80005 10.1791 9.80005 10.4V11.6C9.80005 11.8209 9.62096 12 9.40005 12H8.20005C7.97914 12 7.80005 11.8209 7.80005 11.6V10.4Z" fill="#2C2C2C"/>
<path d="M4.80005 10.4C4.80005 10.1791 4.97913 10 5.20005 10H6.40005C6.62096 10 6.80005 10.1791 6.80005 10.4V11.6C6.80005 11.8209 6.62096 12 6.40005 12H5.20005C4.97913 12 4.80005 11.8209 4.80005 11.6V10.4Z" fill="#2C2C2C"/>
<path d="M7.80005 13.4C7.80005 13.1791 7.97914 13 8.20005 13H9.40005C9.62096 13 9.80005 13.1791 9.80005 13.4V14.6C9.80005 14.8209 9.62096 15 9.40005 15H8.20005C7.97914 15 7.80005 14.8209 7.80005 14.6V13.4Z" fill="#2C2C2C"/>
<path d="M4.80005 13.4C4.80005 13.1791 4.97913 13 5.20005 13H6.40005C6.62096 13 6.80005 13.1791 6.80005 13.4V14.6C6.80005 14.8209 6.62096 15 6.40005 15H5.20005C4.97913 15 4.80005 14.8209 4.80005 14.6V13.4Z" fill="#2C2C2C"/>
<path d="M18 17.4C18 17.1791 18.1791 17 18.4 17H19.6C19.8209 17 20 17.1791 20 17.4V18.6C20 18.8209 19.8209 19 19.6 19H18.4C18.1791 19 18 18.8209 18 18.6V17.4Z" fill="#2C2C2C"/>
<path d="M15 17.4C15 17.1791 15.1791 17 15.4 17H16.6C16.8209 17 17 17.1791 17 17.4V18.6C17 18.8209 16.8209 19 16.6 19H15.4C15.1791 19 15 18.8209 15 18.6V17.4Z" fill="#2C2C2C"/>
</svg>
