<svg width="24" height="24" viewBox="0 0 24 24" fill="none" xmlns="http://www.w3.org/2000/svg">
<path fill-rule="evenodd" clip-rule="evenodd" d="M12.1679 2.38694C12.3672 2.24645 12.6225 2.21167 12.8522 2.2937L21.2521 5.29368C21.5506 5.40029 21.7499 5.68303 21.7499 5.99999V20.3999C21.7499 20.5988 21.6708 20.7896 21.5302 20.9302C21.3895 21.0709 21.1988 21.1499 20.9998 21.1499L3 21.1497C2.58579 21.1497 2.25 20.8139 2.25 20.3997V11.9997C2.25 11.5855 2.58579 11.2497 3 11.2497H4.19999C4.61421 11.2497 4.94999 11.5855 4.94999 11.9997C4.94999 12.4139 4.61421 12.7497 4.19999 12.7497H3.75V19.6497H5.84998L5.84994 8.39998C5.84994 8.20106 5.92896 8.0103 6.06961 7.86965C6.21027 7.72899 6.40103 7.64997 6.59994 7.64997H13.7999C14.2141 7.64997 14.5499 7.98576 14.5499 8.39997V19.6498L20.2499 19.6499V6.52853L13.3499 4.06426V5.99999C13.3499 6.4142 13.0141 6.74999 12.5999 6.74999C12.1857 6.74999 11.8499 6.4142 11.8499 5.99999V3C11.8499 2.75611 11.9685 2.52744 12.1679 2.38694ZM13.0499 19.6498V9.14997H7.34995L7.34998 19.6497L13.0499 19.6498ZM17.3999 7.65009C17.8142 7.65009 18.1499 7.98588 18.1499 8.40009V16.8C18.1499 17.2143 17.8142 17.55 17.3999 17.55C16.9857 17.55 16.6499 17.2143 16.6499 16.8V8.40009C16.6499 7.98588 16.9857 7.65009 17.3999 7.65009ZM8.24988 12.9995C8.24988 12.5853 8.58566 12.2495 8.99988 12.2495H11.3999C11.8141 12.2495 12.1499 12.5853 12.1499 12.9995C12.1499 13.4137 11.8141 13.7495 11.3999 13.7495H8.99988C8.58566 13.7495 8.24988 13.4137 8.24988 12.9995ZM8.24991 16.7996C8.24991 16.3854 8.58569 16.0496 8.99991 16.0496H11.3999C11.8141 16.0496 12.1499 16.3854 12.1499 16.7996C12.1499 17.2138 11.8141 17.5496 11.3999 17.5496H8.99991C8.58569 17.5496 8.24991 17.2138 8.24991 16.7996Z" fill="#2C2C2C"/>
</svg>
