<svg width="24" height="24" viewBox="0 0 24 24" fill="none" xmlns="http://www.w3.org/2000/svg">
<path fill-rule="evenodd" clip-rule="evenodd" d="M7.05076 3.75C4.70958 3.75 2.75 5.75368 2.75 8.3033C2.75 9.5224 3.21156 10.6846 4.02244 11.5361L12 19.9125L19.9776 11.5361C20.7884 10.6846 21.25 9.5224 21.25 8.3033C21.25 5.75368 19.2904 3.75 16.9492 3.75C15.8207 3.75 14.7306 4.22037 13.9209 5.07054L12.5431 6.51724C12.4015 6.66588 12.2053 6.75 12 6.75C11.7947 6.75 11.5985 6.66588 11.4569 6.51724L10.0791 5.07054C9.2694 4.22037 8.17926 3.75 7.05076 3.75ZM1.25 8.3033C1.25 4.99506 3.81303 2.25 7.05076 2.25C8.60136 2.25 10.0806 2.89711 11.1653 4.03606L12 4.9125L12.8347 4.03606C13.9194 2.89711 15.3986 2.25 16.9492 2.25C20.187 2.25 22.75 4.99506 22.75 8.3033C22.75 9.89725 22.1473 11.4328 21.0638 12.5705L12.5431 21.5172C12.4015 21.6659 12.2053 21.75 12 21.75C11.7947 21.75 11.5985 21.6659 11.4569 21.5172L2.93623 12.5705C1.8527 11.4328 1.25 9.89725 1.25 8.3033Z" fill="#2C2C2C"/>
</svg>
