<svg width="24" height="24" viewBox="0 0 24 24" fill="none" xmlns="http://www.w3.org/2000/svg">
<path fill-rule="evenodd" clip-rule="evenodd" d="M11.5094 0.432683C11.7911 0.189106 12.2089 0.189106 12.4906 0.432683L22.4906 9.07974C22.6553 9.22221 22.75 9.42925 22.75 9.64706L22.75 22C22.75 22.1989 22.671 22.3897 22.5303 22.5303C22.3897 22.671 22.1989 22.75 22 22.75H15.75C15.3358 22.75 15 22.4142 15 22V17.0588C15 16.2778 14.6861 15.5269 14.1245 14.9718C13.5625 14.4165 12.7985 14.1029 12 14.1029C11.2015 14.1029 10.4375 14.4165 9.87554 14.9718C9.31389 15.5269 9 16.2778 9 17.0588V22C9 22.4142 8.66422 22.75 8.25 22.75H2.00001C1.58579 22.75 1.25001 22.4142 1.25001 22L1.25 9.64706C1.25 9.42925 1.34468 9.22221 1.50944 9.07974L11.5094 0.432683ZM2.75 9.99004L2.75001 21.25H7.5V17.0588C7.5 15.8742 7.97629 14.7398 8.82117 13.9049C9.66575 13.0703 10.8094 12.6029 12 12.6029C13.1906 12.6029 14.3343 13.0703 15.1788 13.9049C16.0237 14.7398 16.5 15.8742 16.5 17.0588V21.25H21.25L21.25 9.99004L12 1.99151L2.75 9.99004Z" fill="#2C2C2C"/>
</svg>
