<svg width="24" height="24" viewBox="0 0 24 24" fill="none" xmlns="http://www.w3.org/2000/svg">
<path fill-rule="evenodd" clip-rule="evenodd" d="M4.5 3.75C4.08579 3.75 3.75 4.08579 3.75 4.5C3.75 4.91421 4.08579 5.25 4.5 5.25C4.91421 5.25 5.25 4.91421 5.25 4.5C5.25 4.08579 4.91421 3.75 4.5 3.75ZM2.25 4.5C2.25 3.25736 3.25736 2.25 4.5 2.25C5.74264 2.25 6.75 3.25736 6.75 4.5C6.75 5.74264 5.74264 6.75 4.5 6.75C3.25736 6.75 2.25 5.74264 2.25 4.5Z" fill="#2C2C2C"/>
<path fill-rule="evenodd" clip-rule="evenodd" d="M4.5 10.75C4.08579 10.75 3.75 11.0858 3.75 11.5C3.75 11.9142 4.08579 12.25 4.5 12.25C4.91421 12.25 5.25 11.9142 5.25 11.5C5.25 11.0858 4.91421 10.75 4.5 10.75ZM2.25 11.5C2.25 10.2574 3.25736 9.25 4.5 9.25C5.74264 9.25 6.75 10.2574 6.75 11.5C6.75 12.7426 5.74264 13.75 4.5 13.75C3.25736 13.75 2.25 12.7426 2.25 11.5Z" fill="#2C2C2C"/>
<path fill-rule="evenodd" clip-rule="evenodd" d="M4.5 17.75C4.08579 17.75 3.75 18.0858 3.75 18.5C3.75 18.9142 4.08579 19.25 4.5 19.25C4.91421 19.25 5.25 18.9142 5.25 18.5C5.25 18.0858 4.91421 17.75 4.5 17.75ZM2.25 18.5C2.25 17.2574 3.25736 16.25 4.5 16.25C5.74264 16.25 6.75 17.2574 6.75 18.5C6.75 19.7426 5.74264 20.75 4.5 20.75C3.25736 20.75 2.25 19.7426 2.25 18.5Z" fill="#2C2C2C"/>
<path fill-rule="evenodd" clip-rule="evenodd" d="M7.75 4.5C7.75 4.08579 8.08579 3.75 8.5 3.75H20.5C20.9142 3.75 21.25 4.08579 21.25 4.5C21.25 4.91421 20.9142 5.25 20.5 5.25H8.5C8.08579 5.25 7.75 4.91421 7.75 4.5Z" fill="#2C2C2C"/>
<path fill-rule="evenodd" clip-rule="evenodd" d="M7.75 11.5C7.75 11.0858 8.08579 10.75 8.5 10.75H20.5C20.9142 10.75 21.25 11.0858 21.25 11.5C21.25 11.9142 20.9142 12.25 20.5 12.25H8.5C8.08579 12.25 7.75 11.9142 7.75 11.5Z" fill="#2C2C2C"/>
<path fill-rule="evenodd" clip-rule="evenodd" d="M7.75 18.5C7.75 18.0858 8.08579 17.75 8.5 17.75H20.5C20.9142 17.75 21.25 18.0858 21.25 18.5C21.25 18.9142 20.9142 19.25 20.5 19.25H8.5C8.08579 19.25 7.75 18.9142 7.75 18.5Z" fill="#2C2C2C"/>
</svg>
